# Blender v2.79 (sub 0) OBJ File: 'bassplant.blend'
# www.blender.org
mtllib bassplant.mtl
o Cube
v 0.000000 0.500000 0.000000
v 0.000000 0.500000 -0.500000
v 0.000000 0.000000 -0.500000
v 0.000000 0.000000 0.000000
v 0.000000 0.000000 0.000000
v 0.000000 0.000000 -0.500000
v 0.000000 0.500000 -0.500000
v 0.000000 0.500000 0.000000
vt 0.750391 0.857366
vt 0.750391 0.999777
vt 0.999609 0.999777
vt 0.999609 0.857366
vt 0.750391 0.857366
vt 0.999609 0.857366
vt 0.999609 0.999777
vt 0.750391 0.999777
vn -1.0000 0.0000 0.0000
vn 1.0000 0.0000 0.0000
usemtl beatboxers_town_tilemap_real
s off
f 4/1/1 1/2/1 2/3/1 3/4/1
f 5/5/2 6/6/2 7/7/2 8/8/2
