# Blender v2.79 (sub 0) OBJ File: 'farmland 4x4.blend'
# www.blender.org
mtllib farmland 4x4.mtl
o Cube
v -0.000007 -0.499986 -1.000011
v 0.499993 -0.499989 -1.000011
v 0.499996 0.000011 -1.000011
v 0.999993 -0.499993 -1.000011
v 1.499993 -0.499996 -1.000011
v 1.499996 0.000004 -1.000011
v 0.999996 0.000007 -1.000011
v 1.999993 -0.500000 -1.000011
v 2.000010 -0.499982 -1.000018
v 2.000010 -0.499986 -0.500018
v 1.999996 -0.000000 -1.000011
v 2.000010 -0.499989 -0.000018
v 2.000010 0.000011 -0.000014
v 2.000010 0.000007 0.499986
v 2.000010 -0.499993 0.499982
v 2.000010 -0.499996 0.999982
v 2.000004 -0.499982 1.000000
v 1.500004 -0.499986 1.000000
v 2.000010 0.000018 -1.000014
v 1.500000 0.000014 1.000000
v 1.000004 -0.499989 1.000000
v 0.500004 -0.499993 1.000000
v 1.000000 0.000011 1.000000
v 2.000000 0.000018 1.000000
v 2.000010 0.000014 -0.500014
v 0.000004 -0.499996 1.000000
v 0.000000 -0.499986 1.000004
v 0.000000 -0.499989 0.500004
v 0.000000 0.000004 1.000000
v 0.000000 -0.499993 0.000004
v 0.500000 0.000007 1.000000
v 0.000000 0.000007 0.000000
v 0.000000 0.000004 -0.500000
v 1.000011 0.000004 0.999993
v 0.000000 -0.499996 -0.499996
v 1.500010 0.000004 0.999989
v 1.500007 0.000004 0.499989
v 1.000007 0.000004 0.499993
v 0.000000 -0.500000 -0.999996
v 0.000000 -0.000000 -1.000000
v 0.000000 0.000014 1.000000
v 2.000000 0.000004 -0.500014
v 2.000010 0.000004 0.999986
v 1.999996 0.000004 -1.000014
v 0.000000 0.000011 0.500000
v -0.000004 0.000004 -1.000000
v 2.000004 0.000004 -0.000014
v -0.000004 0.000014 -1.000011
v 0.499996 0.000004 -1.000004
v 0.500003 0.000004 -0.000004
v 0.999996 0.000004 -1.000007
v 0.500007 0.000004 0.499996
v 0.000011 0.000004 1.000000
v 0.000007 0.000004 0.500000
v 0.500000 0.000004 -0.500004
v 1.500000 0.000004 -0.500011
v 0.500011 0.000004 0.999996
v 1.500004 0.000004 -0.000011
v 0.000004 0.000004 0.000000
v 2.000007 0.000004 0.499986
v 1.000000 0.000004 -0.500007
v 1.000004 0.000004 -0.000007
vt 0.749610 0.000312
vt 0.500390 0.000312
vt 0.500390 0.199688
vt 0.749610 0.199688
vt 0.749610 0.000312
vt 0.500390 0.000312
vt 0.500390 0.199688
vt 0.749610 0.199688
vt 0.749610 0.000312
vt 0.500390 0.000312
vt 0.500390 0.199688
vt 0.749610 0.199688
vt 0.749610 0.000312
vt 0.500390 0.000312
vt 0.500390 0.199688
vt 0.749610 0.199688
vt 0.749610 0.000312
vt 0.500390 0.000312
vt 0.500390 0.199688
vt 0.749610 0.199688
vt 0.749610 0.000312
vt 0.500390 0.000312
vt 0.500390 0.199688
vt 0.749610 0.199688
vt 0.749610 0.000312
vt 0.500390 0.000312
vt 0.500390 0.199688
vt 0.749610 0.199688
vt 0.749610 0.000312
vt 0.500390 0.000312
vt 0.500390 0.199688
vt 0.749610 0.199688
vt 0.749610 0.000312
vt 0.500390 0.000312
vt 0.500390 0.199688
vt 0.749610 0.199688
vt 0.749610 0.000312
vt 0.500390 0.000312
vt 0.500390 0.199688
vt 0.749610 0.199688
vt 0.749610 0.000312
vt 0.500390 0.000312
vt 0.500390 0.199688
vt 0.749610 0.199688
vt 0.749610 0.000312
vt 0.500390 0.000312
vt 0.500390 0.199688
vt 0.749610 0.199688
vt 0.749610 0.000312
vt 0.500390 0.000312
vt 0.500390 0.199688
vt 0.749610 0.199688
vt 0.749610 0.000312
vt 0.500390 0.000312
vt 0.500390 0.199688
vt 0.749610 0.199688
vt 0.749610 0.000312
vt 0.500390 0.000312
vt 0.500390 0.199688
vt 0.749610 0.199688
vt 0.749610 0.000312
vt 0.500390 0.000312
vt 0.500390 0.199688
vt 0.749610 0.199688
vt 0.750391 0.599688
vt 0.999609 0.599688
vt 0.999609 0.400313
vt 0.750391 0.400313
vt 0.750391 0.399688
vt 0.999609 0.399688
vt 0.999609 0.200313
vt 0.750391 0.200313
vt 0.750391 0.599687
vt 0.999609 0.599687
vt 0.999609 0.400313
vt 0.750391 0.400313
vt 0.750391 0.599688
vt 0.999609 0.599688
vt 0.999609 0.400313
vt 0.750391 0.400313
vt 0.750391 0.599688
vt 0.999609 0.599688
vt 0.999609 0.400313
vt 0.750391 0.400313
vt 0.750391 0.399688
vt 0.999609 0.399688
vt 0.999609 0.200312
vt 0.750391 0.200312
vt 0.750391 0.599688
vt 0.999609 0.599688
vt 0.999609 0.400313
vt 0.750391 0.400313
vt 0.750391 0.599688
vt 0.999609 0.599688
vt 0.999609 0.400313
vt 0.750391 0.400313
vt 0.750391 0.599688
vt 0.999609 0.599688
vt 0.999609 0.400313
vt 0.750391 0.400313
vt 0.999609 0.399688
vt 0.750391 0.399688
vt 0.750391 0.200313
vt 0.999609 0.200313
vt 0.750391 0.599688
vt 0.999609 0.599688
vt 0.999609 0.400312
vt 0.750391 0.400312
vt 0.750391 0.599688
vt 0.999609 0.599688
vt 0.999609 0.400313
vt 0.750391 0.400313
vt 0.750391 0.599688
vt 0.999609 0.599688
vt 0.999609 0.400313
vt 0.750391 0.400313
vt 0.750391 0.599688
vt 0.999609 0.599688
vt 0.999609 0.400312
vt 0.750391 0.400312
vt 0.750391 0.399687
vt 0.999609 0.399687
vt 0.999609 0.200313
vt 0.750391 0.200313
vt 0.750391 0.599688
vt 0.999609 0.599688
vt 0.999609 0.400313
vt 0.750391 0.400313
vn 0.0000 0.0000 -1.0000
vn 1.0000 0.0000 0.0000
vn 0.0000 0.0000 1.0000
vn -1.0000 0.0000 0.0000
vn 0.0000 1.0000 0.0000
usemtl beatboxers_town_tilemap
s off
f 48/1/1 3/2/1 2/3/1 1/4/1
f 3/5/1 7/6/1 4/7/1 2/8/1
f 7/9/1 6/10/1 5/11/1 4/12/1
f 6/13/1 11/14/1 8/15/1 5/16/1
f 19/17/2 25/18/2 10/19/2 9/20/2
f 25/21/2 13/22/2 12/23/2 10/24/2
f 13/25/2 14/26/2 15/27/2 12/28/2
f 14/29/2 43/30/2 16/31/2 15/32/2
f 24/33/3 20/34/3 18/35/3 17/36/3
f 20/37/3 23/38/3 21/39/3 18/40/3
f 23/41/3 31/42/3 22/43/3 21/44/3
f 31/45/3 29/46/3 26/47/3 22/48/3
f 41/49/4 45/50/4 28/51/4 27/52/4
f 45/53/4 32/54/4 30/55/4 28/56/4
f 32/57/4 33/58/4 35/59/4 30/60/4
f 33/61/4 40/62/4 39/63/4 35/64/4
f 58/65/5 56/66/5 61/67/5 62/68/5
f 37/69/5 58/70/5 62/71/5 38/72/5
f 36/73/5 37/74/5 38/75/5 34/76/5
f 43/77/5 60/78/5 37/79/5 36/80/5
f 60/81/5 47/82/5 58/83/5 37/84/5
f 47/85/5 42/86/5 56/87/5 58/88/5
f 42/89/5 44/90/5 6/91/5 56/92/5
f 56/93/5 6/94/5 51/95/5 61/96/5
f 55/97/5 49/98/5 46/99/5 33/100/5
f 61/101/5 51/102/5 49/103/5 55/104/5
f 62/105/5 61/106/5 55/107/5 50/108/5
f 38/109/5 62/110/5 50/111/5 52/112/5
f 34/113/5 38/114/5 52/115/5 57/116/5
f 57/117/5 52/118/5 54/119/5 53/120/5
f 52/121/5 50/122/5 59/123/5 54/124/5
f 50/125/5 55/126/5 33/127/5 59/128/5
