# Blender v2.79 (sub 0) OBJ File: 'house2.blend'
# www.blender.org
mtllib house2.mtl
o Cube
v 0.000000 0.000000 -1.000000
v 0.000000 0.000000 0.500000
v 0.000000 0.000000 1.000000
v 0.000000 0.000000 1.500000
v -1.000000 0.000000 -1.500000
v -0.500000 0.500000 -1.500000
v 0.000000 0.000000 -0.500000
v 0.000000 0.000000 0.000000
v -1.500000 0.000000 -0.500000
v -0.500000 1.000000 2.000000
v -0.500000 1.000000 -1.500000
v 0.000000 1.000000 2.000000
v 0.000000 0.500000 0.000000
v -1.500000 1.000000 2.000000
v 0.000000 0.500000 1.000000
v 0.000000 1.000000 1.500000
v 0.000000 1.000000 1.000000
v 0.000000 1.288104 2.000000
v 0.000000 1.288104 1.000000
v 0.000000 1.288104 1.500000
v -0.500000 0.000000 -1.500000
v 0.000000 0.500000 0.500000
v 0.000000 1.000000 0.500000
v 0.000000 0.500000 1.500000
v 0.000000 1.000000 0.000000
v 0.000000 1.000000 -0.500000
v 0.000000 0.500000 -1.000000
v 0.000000 0.500000 -0.500000
v 0.000000 2.000000 0.000000
v 0.000000 1.000000 -1.500000
v 0.000000 1.000000 -1.000000
v 0.000000 1.393923 0.000000
v 0.000000 1.500000 -1.000000
v 0.000000 1.500000 -0.500000
v 0.000000 2.000000 0.500000
v 0.000000 1.288104 0.500000
v 0.000000 2.000000 -1.500000
v 0.000000 2.240859 0.500000
v 0.000000 1.500000 -1.500000
v 0.000000 2.245754 0.000000
v 0.000000 0.000000 -1.500000
v 0.000000 2.245754 -0.500000
v 0.000000 2.245754 -1.500000
v 0.000000 2.245754 -1.000000
v 0.000000 2.000000 -1.000000
v 0.000000 2.000000 -0.500000
v -1.500000 1.000000 -1.000000
v -1.500000 1.500000 2.000000
v -1.000000 2.500000 -1.500000
v -1.500000 2.500000 -1.500000
v 0.000000 0.000000 2.000000
v -1.000000 1.500000 -1.500000
v -0.500000 1.500000 -1.500000
v -1.500000 2.000000 -1.500000
v -1.000000 1.000000 -1.500000
v -1.000000 0.500000 -1.500000
v -0.500000 2.000000 -1.500000
v -0.500000 2.500000 -1.500000
v 0.000000 0.500000 -1.500000
v -1.000000 2.000000 -1.500000
v -1.500000 0.000000 -1.500000
v -1.500000 0.000000 -1.000000
v -0.500000 0.000000 2.000000
v -1.500000 0.000000 0.500000
v -1.500000 0.000000 0.000000
v -1.500000 1.000000 -0.500000
v 0.000000 0.500000 2.000000
v -1.500000 0.500000 -0.500000
v -1.500000 1.500000 1.500000
v -1.500000 0.500000 0.500000
v -1.500000 0.500000 1.000000
v -1.500000 1.000000 0.000000
v -1.500006 1.500000 0.500000
v -1.000000 0.000000 2.000000
v -1.500000 2.000000 0.000000
v -1.500000 0.000000 1.000000
v -1.500000 2.000000 -1.000000
v -1.500000 0.000000 1.500000
v -1.500000 1.000000 1.000000
v -1.500000 0.500000 1.500000
v -1.500000 0.000000 2.000000
v -1.500000 1.000000 0.500000
v -0.000004 1.293216 0.999994
v -1.500000 1.500000 1.000000
v -1.500000 1.500000 0.500000
v -1.500000 1.000000 1.500000
v -1.500000 1.500000 -0.500000
v -1.500000 1.500000 0.000000
v -1.500000 2.000000 0.500000
v -1.500000 2.000000 -0.500000
v -1.500000 2.500000 0.500000
v -1.500000 2.500000 0.000000
v -1.500000 0.500000 0.000000
v -1.500000 2.500000 -0.500000
v -1.500000 1.000000 -1.500000
v -1.500000 1.500000 -1.000000
v -1.500000 2.500000 -1.000000
v -1.500000 0.500000 -1.000000
v -1.500000 1.500000 -1.500000
v -1.500000 0.500000 -1.500000
v -0.500000 0.500000 2.000000
v -1.000000 0.500000 2.000000
v -1.000006 2.500000 -0.000006
v -1.500000 0.500000 2.000000
v -0.500000 1.500000 2.000000
v -1.000000 1.000000 2.000000
v -1.000000 1.500000 2.000000
v -1.000006 2.500000 -0.500006
v -0.500006 1.500000 0.499996
v -0.000006 1.293216 0.499994
v -1.000000 1.500000 1.999998
v -0.500006 1.499998 0.499994
v -1.000002 1.500000 1.499998
v -0.000000 1.283868 1.999994
v -1.500002 1.500000 1.500000
v -1.500004 1.500000 1.000000
v -1.000006 1.500000 0.499998
v -1.000004 1.500000 0.999998
v -0.000002 1.293216 1.499994
v -0.500004 1.500000 0.999996
v -0.500002 1.500000 1.499996
v -0.500000 1.500000 1.999996
v -0.500009 2.499998 0.499994
v -1.000006 1.499996 0.499994
v -0.000006 2.249274 -0.000006
v -1.000008 1.999996 0.499994
v -0.000009 2.245754 0.499994
v -1.500006 1.499994 0.499994
v -1.500009 2.499994 0.499994
v -1.500008 1.999994 0.499994
v -1.000009 2.499996 0.499994
v -0.000008 2.000000 0.499994
v -0.500008 1.999998 0.499994
v -0.000006 2.249274 0.499994
v -0.000006 2.249274 -1.000006
v -0.000006 2.249274 -1.500006
v -0.500006 2.500000 -0.500006
v -0.000006 2.249274 -0.500006
v -0.500006 2.500000 -1.500006
v -1.000006 2.500000 -1.000006
v -0.500006 2.500000 -1.000006
v -1.000006 2.500000 -1.500006
v -1.500006 2.500000 -1.500006
v -1.500006 2.500000 -1.000006
v -0.500006 2.500000 -0.000006
v -1.500006 2.500000 -0.500006
v -1.500006 2.500000 -0.000006
v -0.500006 2.500000 0.499994
v -1.500006 2.500000 0.499994
v -1.000006 2.500000 0.499994
vt 0.000391 0.714509
vt 0.249609 0.714509
vt 0.249609 0.856920
vt 0.000391 0.856920
vt 0.000391 0.714509
vt 0.249609 0.714509
vt 0.249609 0.856920
vt 0.000391 0.856920
vt 0.249609 0.428795
vt 0.000391 0.428795
vt 0.000391 0.571205
vt 0.249609 0.571205
vt 0.000391 0.714509
vt 0.249609 0.714509
vt 0.249609 0.856920
vt 0.000391 0.856920
vt 0.000391 0.714509
vt 0.249609 0.714509
vt 0.249609 0.856920
vt 0.000391 0.856920
vt 0.000391 0.714509
vt 0.249609 0.714509
vt 0.249609 0.856920
vt 0.000391 0.856920
vt 0.000391 0.714509
vt 0.249609 0.714509
vt 0.249609 0.856920
vt 0.000391 0.856920
vt 0.000391 0.714509
vt 0.249609 0.714509
vt 0.249609 0.856920
vt 0.000391 0.856920
vt 0.249610 0.856920
vt 0.000390 0.856920
vt 0.000390 0.714508
vt 0.249610 0.714508
vt 0.249610 0.856920
vt 0.000390 0.714508
vt 0.499609 0.428795
vt 0.250391 0.428795
vt 0.250391 0.571205
vt 0.499609 0.571205
vt 0.000391 0.714509
vt 0.249609 0.714509
vt 0.249609 0.856920
vt 0.749609 0.571652
vt 0.500391 0.571652
vt 0.500391 0.714063
vt 0.749609 0.714063
vt 0.249609 0.714509
vt 0.000391 0.714509
vt 0.000391 0.857143
vt 0.249609 0.857143
vt 0.000391 0.714509
vt 0.000391 0.856920
vt 0.249609 0.714509
vt 0.249609 0.856920
vt 0.249609 0.714509
vt 0.249609 0.856920
vt 0.000391 0.856920
vt 0.000391 0.714509
vt 0.249609 0.714509
vt 0.249609 0.856920
vt 0.000391 0.856920
vt 0.000391 0.714509
vt 0.249609 0.714509
vt 0.249609 0.856920
vt 0.000391 0.856920
vt 0.250391 0.714509
vt 0.499609 0.714509
vt 0.499609 0.857143
vt 0.250391 0.857143
vt 0.250391 0.714509
vt 0.499609 0.714509
vt 0.499609 0.857143
vt 0.250391 0.857143
vt 0.249609 0.714509
vt 0.249609 0.856920
vt 0.000391 0.856920
vt 0.499609 0.750000
vt 0.250391 0.750000
vt 0.250391 0.821429
vt 0.499609 0.821429
vt 0.249609 0.750000
vt 0.000391 0.750000
vt 0.000391 0.821429
vt 0.249609 0.821429
vt 0.250391 0.750000
vt 0.499609 0.750000
vt 0.499609 0.821429
vt 0.250391 0.821429
vt 0.249609 0.750000
vt 0.000391 0.750000
vt 0.000391 0.821429
vt 0.249609 0.821429
vt 0.749609 0.571652
vt 0.500391 0.571652
vt 0.500391 0.714063
vt 0.749609 0.714063
vt 0.249610 0.856920
vt 0.000390 0.856920
vt 0.000390 0.714509
vt 0.000391 0.714509
vt 0.249609 0.714509
vt 0.249609 0.856920
vt 0.000391 0.856920
vt 0.000391 0.714509
vt 0.249609 0.714509
vt 0.249609 0.856920
vt 0.000391 0.856920
vt 0.000391 0.714509
vt 0.249609 0.714509
vt 0.249609 0.856920
vt 0.000391 0.856920
vt 0.000391 0.857143
vt 0.249609 0.857143
vt 0.249609 0.714509
vt 0.000391 0.714509
vt 0.249609 0.856920
vt 0.000391 0.856920
vt 0.000391 0.714509
vt 0.249609 0.714509
vt 0.249609 0.856920
vt 0.000391 0.856920
vt 0.000391 0.714509
vt 0.249609 0.714509
vt 0.249609 0.856920
vt 0.000391 0.856920
vt 0.749609 0.571652
vt 0.500391 0.571652
vt 0.500391 0.714063
vt 0.749609 0.714063
vt 0.000391 0.714509
vt 0.249609 0.714509
vt 0.249609 0.856920
vt 0.000391 0.856920
vt 0.000391 0.714509
vt 0.249609 0.714509
vt 0.249609 0.856920
vt 0.000391 0.856920
vt 0.000391 0.714509
vt 0.249609 0.714509
vt 0.249609 0.856920
vt 0.000391 0.856920
vt 0.000391 0.714509
vt 0.249609 0.714509
vt 0.249609 0.856920
vt 0.000391 0.856920
vt 0.000391 0.714509
vt 0.249609 0.714509
vt 0.249609 0.856920
vt 0.000391 0.856920
vt 0.000391 0.714509
vt 0.000391 0.857143
vt 0.249609 0.857143
vt 0.000391 0.857143
vt 0.249609 0.714509
vt 0.000391 0.714509
vt 0.000391 0.714509
vt 0.249609 0.714509
vt 0.249609 0.856920
vt 0.000391 0.856920
vt 0.000391 0.714509
vt 0.249609 0.714509
vt 0.249609 0.856920
vt 0.000391 0.856920
vt 0.000391 0.714509
vt 0.249609 0.714509
vt 0.249609 0.856920
vt 0.000391 0.856920
vt 0.000391 0.714509
vt 0.249609 0.714509
vt 0.249609 0.856920
vt 0.000391 0.856920
vt 0.000391 0.714509
vt 0.249609 0.714509
vt 0.249609 0.856920
vt 0.000391 0.856920
vt 0.000391 0.714509
vt 0.249609 0.714509
vt 0.249609 0.856920
vt 0.000391 0.856920
vt 0.000391 0.714509
vt 0.249609 0.714509
vt 0.249609 0.856920
vt 0.000391 0.856920
vt 0.000391 0.714509
vt 0.249609 0.714509
vt 0.249609 0.856920
vt 0.000391 0.856920
vt 0.000391 0.714509
vt 0.249609 0.714509
vt 0.249609 0.856920
vt 0.000391 0.856920
vt 0.000391 0.714509
vt 0.249609 0.714509
vt 0.249609 0.856920
vt 0.000391 0.856920
vt 0.000391 0.714509
vt 0.249609 0.714509
vt 0.249609 0.856920
vt 0.000391 0.856920
vt 0.000391 0.714509
vt 0.249609 0.714509
vt 0.249609 0.856920
vt 0.000391 0.856920
vt 0.000391 0.714509
vt 0.249609 0.714509
vt 0.249609 0.856920
vt 0.000391 0.856920
vt 0.000391 0.714509
vt 0.249609 0.714509
vt 0.249609 0.856920
vt 0.000391 0.856920
vt 0.000391 0.714509
vt 0.249609 0.714509
vt 0.249609 0.856920
vt 0.000391 0.856920
vt 0.000391 0.714509
vt 0.249609 0.714509
vt 0.249609 0.856920
vt 0.000391 0.856920
vt 0.000391 0.714509
vt 0.249609 0.714509
vt 0.249609 0.856920
vt 0.000391 0.856920
vt 0.000391 0.714509
vt 0.249609 0.714509
vt 0.249609 0.856920
vt 0.000391 0.856920
vt 0.000391 0.714509
vt 0.249609 0.714509
vt 0.249609 0.856920
vt 0.000391 0.856920
vt 0.000391 0.714509
vt 0.249609 0.714509
vt 0.249609 0.856920
vt 0.000391 0.856920
vt 0.000391 0.714509
vt 0.249609 0.714509
vt 0.249609 0.856920
vt 0.000391 0.856920
vt 0.000391 0.714509
vt 0.249609 0.714509
vt 0.249609 0.856920
vt 0.000391 0.856920
vt 0.000391 0.714509
vt 0.249609 0.714509
vt 0.249609 0.856920
vt 0.000391 0.856920
vt 0.000391 0.714509
vt 0.249609 0.714509
vt 0.249609 0.856920
vt 0.000391 0.856920
vt 0.000391 0.714509
vt 0.249609 0.714509
vt 0.249609 0.856920
vt 0.000391 0.856920
vt 0.000391 0.714509
vt 0.249609 0.714509
vt 0.249609 0.856920
vt 0.000391 0.856920
vt 0.000391 0.714509
vt 0.249609 0.714509
vt 0.249609 0.856920
vt 0.000391 0.856920
vt 0.000391 0.714509
vt 0.249609 0.714509
vt 0.249609 0.856920
vt 0.000391 0.856920
vt 0.000391 0.714509
vt 0.249609 0.714509
vt 0.249609 0.856920
vt 0.000391 0.856920
vt 0.000391 0.714509
vt 0.249609 0.714509
vt 0.249609 0.856920
vt 0.000391 0.856920
vt 0.000391 0.714509
vt 0.249609 0.714509
vt 0.249609 0.856920
vt 0.000391 0.856920
vt 0.000391 0.714509
vt 0.249609 0.714509
vt 0.249609 0.856920
vt 0.000391 0.856920
vt 0.000391 0.714509
vt 0.249609 0.714509
vt 0.249609 0.856920
vt 0.000391 0.856920
vt 0.000391 0.714509
vt 0.249609 0.714509
vt 0.249609 0.856920
vt 0.000391 0.856920
vt 0.000391 0.714509
vt 0.249609 0.714509
vt 0.249609 0.856920
vt 0.000391 0.856920
vt 0.000391 0.714509
vt 0.249609 0.714509
vt 0.249609 0.856920
vt 0.000391 0.856920
vt 0.000391 0.714509
vt 0.249609 0.714509
vt 0.249609 0.856920
vt 0.000391 0.856920
vt 0.000391 0.714509
vt 0.249609 0.714509
vt 0.249609 0.856920
vt 0.000391 0.856920
vt 0.000391 0.714509
vt 0.249609 0.714509
vt 0.249609 0.856920
vt 0.000391 0.856920
vt 0.500391 0.714509
vt 0.749609 0.714509
vt 0.749609 0.856920
vt 0.500391 0.856920
vt 0.500391 0.714509
vt 0.749609 0.714509
vt 0.749609 0.856920
vt 0.500391 0.856920
vt 0.500391 0.714509
vt 0.749609 0.714509
vt 0.749609 0.856920
vt 0.500391 0.856920
vt 0.500391 0.714509
vt 0.749609 0.714509
vt 0.749609 0.856920
vt 0.500391 0.856920
vt 0.500391 0.714509
vt 0.749609 0.714509
vt 0.749609 0.856920
vt 0.500391 0.856920
vt 0.500391 0.714509
vt 0.749609 0.714509
vt 0.749609 0.856920
vt 0.500391 0.856920
vt 0.500391 0.714509
vt 0.749609 0.714509
vt 0.749609 0.856920
vt 0.500391 0.856920
vt 0.500391 0.714509
vt 0.749609 0.714509
vt 0.749609 0.856920
vt 0.500391 0.856920
vt 0.500391 0.714509
vt 0.749609 0.714509
vt 0.749609 0.856920
vt 0.500391 0.856920
vt 0.000391 0.714509
vt 0.249609 0.714509
vt 0.249609 0.856920
vt 0.000391 0.856920
vt 0.000391 0.714509
vt 0.249609 0.714509
vt 0.249609 0.856920
vt 0.000391 0.856920
vt 0.000391 0.714509
vt 0.249609 0.714509
vt 0.249609 0.856920
vt 0.000391 0.856920
vt 0.000391 0.714509
vt 0.249609 0.714509
vt 0.249609 0.856920
vt 0.000391 0.856920
vt 0.250390 0.856920
vt 0.250390 0.714509
vt 0.499610 0.714509
vt 0.499610 0.856920
vt 0.000391 0.714509
vt 0.249609 0.714509
vt 0.249609 0.856920
vt 0.000391 0.856920
vt 0.749609 0.714509
vt 0.500391 0.714509
vt 0.500391 0.856920
vt 0.749609 0.856920
vt 0.749609 0.714509
vt 0.500391 0.714509
vt 0.500391 0.856920
vt 0.749609 0.856920
vt 0.749609 0.714509
vt 0.500391 0.714509
vt 0.500391 0.856920
vt 0.749609 0.856920
vt 0.749609 0.714509
vt 0.500391 0.714509
vt 0.500391 0.856920
vt 0.749609 0.856920
vt 0.749609 0.714509
vt 0.500391 0.714509
vt 0.500391 0.856920
vt 0.749609 0.856920
vt 0.749609 0.714509
vt 0.500391 0.714509
vt 0.500391 0.856920
vt 0.749609 0.856920
vt 0.749609 0.714509
vt 0.500391 0.714509
vt 0.500391 0.856920
vt 0.749609 0.856920
vt 0.749609 0.714509
vt 0.500391 0.714509
vt 0.500391 0.856920
vt 0.749609 0.856920
vt 0.749609 0.714509
vt 0.500391 0.714509
vt 0.500391 0.856920
vt 0.749609 0.856920
vt 0.749609 0.714509
vt 0.500391 0.714509
vt 0.500391 0.856920
vt 0.749609 0.856920
vt 0.749609 0.714509
vt 0.500391 0.714509
vt 0.500391 0.856920
vt 0.749609 0.856920
vt 0.749609 0.714509
vt 0.500391 0.714509
vt 0.500391 0.856920
vt 0.749609 0.856920
vn 1.0000 0.0000 0.0000
vn 0.0000 0.0000 -1.0000
vn -1.0000 0.0000 0.0000
vn 0.0000 0.0000 1.0000
vn 0.0000 1.0000 0.0000
vn 0.3822 0.9241 -0.0000
vn 0.3895 0.9210 0.0086
vn 0.4483 0.8939 0.0000
usemtl beatboxers_town_tilemap_real
s off
f 67/1/1 24/2/1 16/3/1 12/4/1
f 51/5/1 4/6/1 24/7/1 67/8/1
f 4/9/1 3/10/1 15/11/1 24/12/1
f 3/13/1 2/14/1 22/15/1 15/16/1
f 2/17/1 8/18/1 13/19/1 22/20/1
f 8/21/1 7/22/1 28/23/1 13/24/1
f 12/25/1 16/26/1 20/27/1 18/28/1
f 16/29/1 17/30/1 19/31/1 20/32/1
f 17/33/1 23/34/1 36/35/1 19/36/1
f 15/37/1 22/20/1 23/38/1 17/30/1
f 24/39/1 15/40/1 17/41/1 16/42/1
f 22/43/1 13/44/1 25/45/1 23/34/1
f 13/46/1 28/47/1 26/48/1 25/49/1
f 28/50/1 27/51/1 31/52/1 26/53/1
f 7/22/1 1/54/1 27/55/1 28/23/1
f 1/54/1 41/56/1 59/57/1 27/55/1
f 27/51/1 59/58/1 30/59/1 31/60/1
f 31/61/1 30/62/1 39/63/1 33/64/1
f 26/65/1 31/66/1 33/67/1 34/68/1
f 25/69/1 26/70/1 34/71/1 32/72/1
f 23/73/1 25/74/1 32/75/1 36/76/1
f 36/35/1 32/77/1 29/78/1 35/79/1
f 35/80/1 29/81/1 40/82/1 38/83/1
f 29/84/1 46/85/1 42/86/1 40/87/1
f 46/88/1 45/89/1 44/90/1 42/91/1
f 45/92/1 37/93/1 43/94/1 44/95/1
f 34/96/1 33/97/1 45/98/1 46/99/1
f 32/77/1 34/100/1 46/101/1 29/102/1
f 33/103/1 39/104/1 37/105/1 45/106/1
f 41/107/2 21/108/2 6/109/2 59/110/2
f 21/111/2 5/112/2 56/113/2 6/114/2
f 5/115/2 61/116/2 100/117/2 56/118/2
f 56/118/2 100/117/2 95/119/2 55/120/2
f 55/121/2 95/122/2 99/123/2 52/124/2
f 52/125/2 99/126/2 54/127/2 60/128/2
f 53/129/2 52/130/2 60/131/2 57/132/2
f 57/133/2 60/134/2 49/135/2 58/136/2
f 37/137/2 57/138/2 58/139/2 43/140/2
f 39/141/2 53/142/2 57/143/2 37/144/2
f 30/145/2 11/146/2 53/147/2 39/148/2
f 59/149/2 6/150/2 11/151/2 30/152/2
f 6/153/2 56/154/2 55/155/2 11/146/2
f 11/156/2 55/155/2 52/157/2 53/158/2
f 60/159/2 54/160/2 50/161/2 49/162/2
f 61/163/3 62/164/3 98/165/3 100/166/3
f 62/167/3 9/168/3 68/169/3 98/170/3
f 9/171/3 65/172/3 93/173/3 68/174/3
f 65/175/3 64/176/3 70/177/3 93/178/3
f 93/179/3 70/180/3 82/181/3 72/182/3
f 70/183/3 71/184/3 79/185/3 82/186/3
f 71/187/3 80/188/3 86/189/3 79/190/3
f 76/191/3 78/192/3 80/193/3 71/194/3
f 78/195/3 81/196/3 104/197/3 80/198/3
f 80/199/3 104/200/3 14/201/3 86/202/3
f 79/203/3 86/204/3 69/205/3 84/206/3
f 82/207/3 79/208/3 84/209/3 85/210/3
f 64/211/3 76/212/3 71/213/3 70/214/3
f 86/215/3 14/216/3 48/217/3 69/218/3
f 72/219/3 82/220/3 85/221/3 88/222/3
f 66/223/3 72/224/3 88/225/3 87/226/3
f 88/227/3 85/228/3 89/229/3 75/230/3
f 75/231/3 89/232/3 91/233/3 92/234/3
f 90/235/3 75/236/3 92/237/3 94/238/3
f 77/239/3 90/240/3 94/241/3 97/242/3
f 54/243/3 77/244/3 97/245/3 50/246/3
f 99/247/3 96/248/3 77/249/3 54/250/3
f 95/251/3 47/252/3 96/253/3 99/254/3
f 47/255/3 66/256/3 87/257/3 96/258/3
f 100/259/3 98/260/3 47/261/3 95/262/3
f 98/263/3 68/264/3 66/265/3 47/266/3
f 68/267/3 93/268/3 72/269/3 66/270/3
f 87/271/3 88/272/3 75/273/3 90/274/3
f 96/275/3 87/276/3 90/277/3 77/278/3
f 81/279/4 74/280/4 102/281/4 104/282/4
f 74/283/4 63/284/4 101/285/4 102/286/4
f 63/287/4 51/288/4 67/289/4 101/290/4
f 101/291/4 67/292/4 12/293/4 10/294/4
f 10/295/4 12/296/4 18/297/4 105/298/4
f 102/299/4 101/300/4 10/301/4 106/302/4
f 106/303/4 10/304/4 105/305/4 107/306/4
f 14/307/4 106/308/4 107/309/4 48/310/4
f 104/311/4 102/312/4 106/313/4 14/314/4
f 111/315/5 113/316/5 115/317/5 48/318/5
f 122/319/5 121/320/5 113/321/5 111/322/5
f 121/323/5 120/324/5 118/325/5 113/326/5
f 113/327/5 118/328/5 116/329/5 115/330/5
f 118/331/5 117/332/5 73/333/5 116/334/5
f 120/335/5 109/336/5 117/337/5 118/338/5
f 83/339/6 110/340/6 109/341/6 120/342/6
f 119/343/6 83/344/6 120/345/6 121/346/6
f 114/347/7 119/348/7 121/349/7 122/350/7
f 110/351/4 132/352/4 133/353/4 112/354/4
f 112/355/4 133/356/4 126/357/4 124/358/4
f 124/359/4 126/360/4 130/361/4 128/362/4
f 126/363/4 131/364/4 129/365/4 130/366/4
f 133/367/4 123/368/4 131/369/4 126/370/4
f 132/371/4 127/372/4 123/373/4 133/374/4
f 134/375/8 125/376/8 145/377/8 148/378/8
f 125/379/8 138/380/8 137/381/8 145/382/8
f 138/383/8 135/384/8 141/385/8 137/386/8
f 135/387/8 136/388/8 139/389/8 141/390/8
f 141/391/5 139/392/5 142/393/5 140/394/5
f 140/395/5 142/396/5 143/397/5 144/398/5
f 108/399/5 140/400/5 144/401/5 146/402/5
f 103/403/5 108/404/5 146/405/5 147/406/5
f 150/407/5 103/408/5 147/409/5 149/410/5
f 148/411/5 145/412/5 103/413/5 150/414/5
f 145/415/5 137/416/5 108/417/5 103/418/5
f 137/419/5 141/420/5 140/421/5 108/422/5
