# Blender v2.79 (sub 0) OBJ File: ''
# www.blender.org
mtllib RockPlatform3x3.mtl
o Cube
v 1.525617 -0.525757 -0.526250
v 1.525617 -0.025757 0.973750
v 0.525617 -0.525757 -0.526250
v 1.025617 -0.025757 0.973750
v 1.025617 -0.025755 0.973750
v 0.525617 -0.025754 0.973750
v 1.025617 -0.525757 0.473750
v 1.025617 -0.525757 0.973750
v 0.025617 -0.025757 0.473750
v 0.025617 -0.525757 0.973750
v 0.025617 -0.025757 -0.526250
v 0.025617 -0.025764 -0.026250
v 1.025617 -0.525757 -0.026250
v 1.525617 -0.025757 0.473750
v 0.025617 -0.525757 0.473750
v 1.525617 -0.025757 -0.026250
v 1.025617 -0.525757 -0.526250
v 1.525617 0.474243 0.473750
v 0.025617 -0.525757 -0.526250
v 0.525617 0.974243 -0.526250
v 0.525617 0.974243 -0.026250
v 1.025617 -0.025757 -0.526250
v 0.525617 -0.025757 -0.526250
v 1.525617 -0.025757 -0.526250
v 0.525617 -0.025757 0.973750
v 0.025617 0.474243 -0.526250
v 1.025621 0.974246 -0.526250
v 1.525617 0.474243 -0.026250
v 0.525617 0.974243 0.973750
v 0.025617 -0.025757 0.973750
v 1.525617 0.474243 0.973750
v 0.525617 0.974243 0.473750
v 0.525619 0.474246 0.973750
v 0.025617 0.974243 -0.526250
v 1.025619 0.474245 0.973750
v 0.025617 0.474245 0.473752
v 0.025617 -0.025755 0.473750
v 0.025617 0.474236 -0.026253
v 0.025617 0.474243 0.973752
v 0.025617 -0.025757 -0.026250
v 0.025617 0.474243 -0.026250
v 0.025617 0.474239 0.473747
v 0.025617 -0.025761 0.473750
v 0.025617 0.974243 -0.026253
v 0.025617 0.974239 -0.526253
v 0.025617 0.474239 -0.526250
v 1.525617 0.474243 -0.526250
v 0.025617 0.474243 0.473750
v 0.525621 0.974250 -0.526250
v 1.025617 0.974243 -0.026250
v 0.025617 0.474243 0.973750
v 1.525617 0.974243 0.973750
v 0.025617 0.974243 -0.026250
v 0.525617 0.474243 -0.526250
v 1.525617 0.974243 0.473750
v 1.025617 0.474243 0.973750
v 0.525617 0.474243 0.973750
v 1.525617 0.974243 -0.526250
v 1.525617 -0.525757 0.973750
v 1.525617 -0.525757 0.473750
v 1.025617 0.474246 -0.526250
v 0.525617 0.474250 -0.526250
v 1.525617 0.974243 -0.026250
v 1.025617 0.474243 -0.526250
v 1.025617 0.974243 -0.526250
v 0.025617 -0.525757 -0.026250
v 0.025617 0.974243 0.973750
v 0.025617 0.974243 0.473750
v 1.025617 0.974243 0.473750
v 1.025617 0.974243 0.973750
v 0.525617 -0.525757 -0.026250
v 0.525617 -0.525757 0.473750
v 1.525617 -0.525757 -0.026250
v 0.525617 -0.525757 0.973750
vt 0.500391 0.625195
vt 0.749609 0.625195
vt 0.749609 0.749805
vt 0.500391 0.749805
vt 0.250391 0.625195
vt 0.499609 0.625195
vt 0.499609 0.749805
vt 0.250391 0.749805
vt 0.000391 0.625195
vt 0.249609 0.625195
vt 0.249609 0.749805
vt 0.000391 0.749805
vt 0.500391 0.625195
vt 0.749609 0.625195
vt 0.749609 0.749805
vt 0.500391 0.749805
vt 0.250391 0.625195
vt 0.499609 0.625195
vt 0.499609 0.749805
vt 0.250391 0.749805
vt 0.000391 0.625195
vt 0.249609 0.625195
vt 0.249609 0.749805
vt 0.000391 0.749805
vt 0.500391 0.625195
vt 0.749609 0.625195
vt 0.749609 0.749805
vt 0.500391 0.749805
vt 0.250391 0.625195
vt 0.499609 0.625195
vt 0.499609 0.749805
vt 0.250391 0.749805
vt 0.000391 0.625195
vt 0.249609 0.625195
vt 0.249609 0.749805
vt 0.000391 0.749805
vt 0.000391 0.625195
vt 0.249609 0.625195
vt 0.249609 0.749805
vt 0.000391 0.749805
vt 0.250391 0.625195
vt 0.499609 0.625195
vt 0.499609 0.749805
vt 0.250391 0.749805
vt 0.500391 0.625195
vt 0.749609 0.625195
vt 0.749609 0.749805
vt 0.500391 0.749805
vt 0.250391 0.750195
vt 0.499609 0.750195
vt 0.499609 0.874805
vt 0.250391 0.874805
vt 0.500391 0.750195
vt 0.749609 0.750195
vt 0.749609 0.874805
vt 0.500391 0.874805
vt 0.000391 0.750195
vt 0.249609 0.750195
vt 0.249609 0.874805
vt 0.000391 0.874805
vt 0.500391 0.750195
vt 0.749609 0.750195
vt 0.749609 0.874805
vt 0.500391 0.874805
vt 0.499609 0.750195
vt 0.250391 0.750195
vt 0.250391 0.874805
vt 0.499609 0.874805
vt 0.000391 0.750195
vt 0.249609 0.750195
vt 0.249609 0.874805
vt 0.000391 0.874805
vt 0.000391 0.750195
vt 0.249609 0.750195
vt 0.249609 0.874805
vt 0.000391 0.874805
vt 0.500391 0.750195
vt 0.749609 0.750195
vt 0.749609 0.874805
vt 0.500391 0.874805
vt 0.499609 0.750195
vt 0.250391 0.750195
vt 0.250391 0.874805
vt 0.499609 0.874805
vt 0.500390 0.750195
vt 0.500390 0.874805
vt 0.749610 0.874805
vt 0.749610 0.750195
vt 0.500391 0.750195
vt 0.500391 0.874805
vt 0.499609 0.750195
vt 0.250391 0.750195
vt 0.250391 0.874805
vt 0.499609 0.874805
vt 0.249610 0.999805
vt 0.000390 0.999805
vt 0.000390 0.875195
vt 0.249610 0.875195
vt 0.250391 0.875195
vt 0.499609 0.875195
vt 0.499609 0.999805
vt 0.250391 0.999805
vt 0.500391 0.875195
vt 0.749609 0.875195
vt 0.749609 0.999805
vt 0.500391 0.999805
vt 0.500391 0.875195
vt 0.749609 0.875195
vt 0.749609 0.999805
vt 0.500391 0.999805
vt 0.250391 0.875195
vt 0.499609 0.875195
vt 0.499609 0.999805
vt 0.250391 0.999805
vt 0.000391 0.875195
vt 0.249609 0.875195
vt 0.249609 0.999805
vt 0.000391 0.999805
vt 0.000391 0.875195
vt 0.249609 0.875195
vt 0.249609 0.999805
vt 0.000391 0.999805
vt 0.500391 0.875195
vt 0.749609 0.875195
vt 0.749609 0.999805
vt 0.500391 0.999805
vt 0.250391 0.875195
vt 0.499609 0.875195
vt 0.499609 0.999805
vt 0.250391 0.999805
vt 0.500391 0.875195
vt 0.749609 0.875195
vt 0.749609 0.999805
vt 0.500391 0.999805
vt 0.250391 0.625195
vt 0.499609 0.625195
vt 0.499609 0.749805
vt 0.250391 0.749805
vt 0.000391 0.875195
vt 0.249609 0.875195
vt 0.249609 0.999805
vt 0.000391 0.999805
vt 0.000391 0.875195
vt 0.249609 0.875195
vt 0.249609 0.999805
vt 0.250391 0.875195
vt 0.499609 0.875195
vt 0.499609 0.999805
vt 0.250391 0.999805
vt 0.500391 0.875195
vt 0.749609 0.875195
vt 0.500391 0.999805
vt 0.500391 0.750195
vt 0.749609 0.750195
vt 0.749609 0.874805
vt 0.500391 0.874805
vt 0.500391 0.625195
vt 0.749609 0.625195
vt 0.749609 0.749805
vt 0.500391 0.749805
vt 0.250391 0.625195
vt 0.499609 0.625195
vt 0.499609 0.749805
vt 0.250391 0.749805
vt 0.000391 0.625195
vt 0.249609 0.625195
vt 0.249609 0.749805
vt 0.000391 0.749805
vt 0.250391 0.750195
vt 0.499609 0.750195
vt 0.499609 0.874805
vt 0.250391 0.874805
vt 0.000391 0.750195
vt 0.249609 0.750195
vt 0.249609 0.874805
vt 0.000391 0.874805
vt 0.000391 0.000195
vt 0.249609 0.000195
vt 0.249609 0.124805
vt 0.000391 0.124805
vt 0.000391 0.000195
vt 0.249609 0.000195
vt 0.249609 0.124805
vt 0.000391 0.124805
vt 0.000391 0.000195
vt 0.249609 0.000195
vt 0.249609 0.124805
vt 0.000391 0.124805
vt 0.000391 0.000195
vt 0.249609 0.000195
vt 0.249609 0.124805
vt 0.000391 0.124805
vt 0.000391 0.000195
vt 0.249609 0.000195
vt 0.249609 0.124805
vt 0.000391 0.124805
vt 0.000391 0.000195
vt 0.249609 0.000195
vt 0.249609 0.124805
vt 0.000391 0.124805
vt 0.000391 0.000195
vt 0.249609 0.000195
vt 0.249609 0.124805
vt 0.000391 0.124805
vt 0.000391 0.000195
vt 0.249609 0.000195
vt 0.249609 0.124805
vt 0.000391 0.124805
vt 0.000391 0.000195
vt 0.249609 0.000195
vt 0.249609 0.124805
vt 0.000391 0.124805
vn 1.0000 0.0000 0.0000
vn 0.0000 0.0000 1.0000
vn -1.0000 0.0000 0.0000
vn 0.0000 0.0000 -1.0000
vn 0.0000 1.0000 0.0000
vn 0.0000 -1.0000 0.0000
usemtl beatboxers_forest_tilemap
s off
f 73/1/1 1/2/1 24/3/1 16/4/1
f 60/5/1 73/6/1 16/7/1 14/8/1
f 59/9/1 60/10/1 14/11/1 2/12/1
f 8/13/2 59/14/2 2/15/2 4/16/2
f 74/17/2 8/18/2 4/19/2 25/20/2
f 10/21/2 74/22/2 25/23/2 30/24/2
f 15/25/3 10/26/3 30/27/3 9/28/3
f 66/29/3 15/30/3 9/31/3 40/32/3
f 19/33/3 66/34/3 40/35/3 11/36/3
f 1/37/4 17/38/4 22/39/4 24/40/4
f 17/41/4 3/42/4 23/43/4 22/44/4
f 3/45/4 19/46/4 11/47/4 23/48/4
f 22/49/4 23/50/4 54/51/4 64/52/4
f 23/53/4 11/54/4 26/55/4 54/56/4
f 24/57/4 22/58/4 64/59/4 47/60/4
f 16/61/1 24/62/1 47/63/1 28/64/1
f 14/65/1 16/66/1 28/67/1 18/68/1
f 2/69/1 14/70/1 18/71/1 31/72/1
f 30/73/2 25/74/2 57/75/2 51/76/2
f 4/77/2 2/78/2 31/79/2 56/80/2
f 33/81/2 6/82/2 5/83/2 35/84/2
f 36/85/3 37/86/3 30/87/3 39/88/3
f 11/54/3 40/89/3 41/90/3 26/55/3
f 42/91/3 38/92/3 12/93/3 43/94/3
f 44/95/3 45/96/3 46/97/3 41/98/3
f 41/99/3 48/100/3 68/101/3 53/102/3
f 48/103/3 51/104/3 67/105/3 68/106/3
f 28/107/1 47/108/1 58/109/1 63/110/1
f 18/111/1 28/112/1 63/113/1 55/114/1
f 31/115/1 18/116/1 55/117/1 52/118/1
f 51/119/2 57/120/2 29/121/2 67/122/2
f 56/123/2 31/124/2 52/125/2 70/126/2
f 57/127/2 56/128/2 70/129/2 29/130/2
f 54/131/4 26/132/4 34/133/4 20/134/4
f 49/135/4 27/136/4 61/137/4 62/138/4
f 47/139/4 64/140/4 65/141/4 58/142/4
f 29/143/5 32/144/5 68/145/5 67/122/5
f 32/146/5 21/147/5 53/148/5 68/149/5
f 21/150/5 20/151/5 34/133/5 53/152/5
f 50/153/5 65/154/5 20/155/5 21/156/5
f 63/157/5 58/158/5 65/159/5 50/160/5
f 55/161/5 63/162/5 50/163/5 69/164/5
f 52/165/5 55/166/5 69/167/5 70/168/5
f 69/169/5 50/170/5 21/171/5 32/172/5
f 70/173/5 69/174/5 32/175/5 29/176/5
f 8/177/6 7/178/6 60/179/6 59/180/6
f 7/181/6 13/182/6 73/183/6 60/184/6
f 13/185/6 17/186/6 1/187/6 73/188/6
f 71/189/6 3/190/6 17/191/6 13/192/6
f 66/193/6 19/194/6 3/195/6 71/196/6
f 15/197/6 66/198/6 71/199/6 72/200/6
f 10/201/6 15/202/6 72/203/6 74/204/6
f 74/205/6 72/206/6 7/207/6 8/208/6
f 72/209/6 71/210/6 13/211/6 7/212/6
