# Blender v2.79 (sub 0) OBJ File: 'Bag.blend'
# www.blender.org
mtllib Bag.mtl
o Cube
v 0.000003 -0.113568 -0.142814
v 0.500003 -0.113568 -0.142814
v 0.000003 -0.113568 0.357186
v 0.500003 -0.113568 0.357186
v 0.000003 0.386432 -0.142814
v 0.000003 0.386432 0.357186
v 0.500003 0.386432 0.357186
v 0.500003 0.386432 -0.142814
vt 0.500391 0.125195
vt 0.749609 0.125195
vt 0.749609 0.249805
vt 0.500391 0.249805
vt 0.500391 0.125195
vt 0.749609 0.125195
vt 0.749609 0.249805
vt 0.500391 0.249805
vt 0.500391 0.125195
vt 0.749609 0.125195
vt 0.749609 0.249805
vt 0.500391 0.249805
vt 0.500391 0.125195
vt 0.749609 0.125195
vt 0.749609 0.249805
vt 0.500391 0.249805
vt 0.750391 0.125195
vt 0.999609 0.125195
vt 0.999609 0.249805
vt 0.750391 0.249805
vt 0.750391 0.125195
vt 0.999609 0.125195
vt 0.999609 0.249805
vt 0.750391 0.249805
vn -1.0000 -0.0000 -0.0000
vn 0.0000 0.0000 1.0000
vn 1.0000 0.0000 0.0000
vn 0.0000 0.0000 -1.0000
vn 0.0000 -1.0000 0.0000
vn 0.0000 1.0000 0.0000
usemtl beatboxers_forest_tilemap
s off
f 1/1/1 3/2/1 6/3/1 5/4/1
f 3/5/2 4/6/2 7/7/2 6/8/2
f 4/9/3 2/10/3 8/11/3 7/12/3
f 2/13/4 1/14/4 5/15/4 8/16/4
f 4/17/5 3/18/5 1/19/5 2/20/5
f 5/21/6 6/22/6 7/23/6 8/24/6
