# Blender v2.93.4 OBJ File: 'Big Grassland Platform.blend'
# www.blender.org
mtllib Big Grassland Platform.mtl
o Cube
v 0.000000 0.000000 0.500000
v -0.999993 0.000000 -1.000007
v 0.500000 0.000000 0.000000
v 0.500000 0.000000 0.500000
v -0.500000 0.000000 0.000000
v -0.500000 0.000000 -0.500000
v 0.000000 0.000000 -0.500000
v 0.000000 0.000000 0.000000
v 1.500000 -1.000000 -0.500000
v 0.999996 0.000000 1.000004
v -1.000004 0.000000 0.499993
v -0.500000 0.000000 -0.000002
v 0.499996 0.000000 1.000002
v -0.000004 0.000000 1.000000
v -0.499993 0.000000 -1.000003
v -0.499998 0.000000 -0.500002
v 0.000002 0.000000 -0.500000
v 0.000004 0.000000 -1.000000
v -0.499996 0.000000 -1.000002
v 0.000007 0.000000 -1.000000
v 0.000004 0.000000 -0.500000
v 0.500004 0.000000 -0.499996
v 0.500007 0.000000 -0.999996
v 0.500000 0.000000 0.000004
v 0.499996 0.000000 0.500004
v 0.999996 0.000000 0.500007
v 1.000000 0.000000 0.000007
v -0.999996 0.000000 -0.500007
v -1.000007 0.000000 0.999993
v -0.500000 0.000000 -0.000004
v -0.499996 0.000000 -0.500004
v 0.499998 0.000000 0.500002
v -0.500004 0.000000 0.999998
v -1.000000 0.000000 -0.000007
v -0.000002 0.000000 0.500000
v -0.500002 0.000000 0.499998
v 1.000000 0.000000 -1.000000
v -0.500007 0.000000 0.999996
v -0.500004 0.000000 0.499996
v 0.999998 0.000000 0.500004
v 0.000000 0.000000 -1.500000
v 0.500000 0.000000 -1.000000
v 1.000000 0.000000 0.000000
v 1.000000 0.000000 -0.500000
v 0.500000 0.000000 -0.500000
v -1.000000 -0.500000 -1.500000
v 1.500000 0.000000 -1.500000
v 0.499994 0.000000 -1.500002
v 0.499996 0.000000 -1.000002
v -0.500004 0.000000 -0.999998
v -1.000004 0.000000 -0.999996
v -1.000002 0.000000 -0.499996
v -0.000004 0.000000 -1.000000
v -0.000006 0.000000 -1.500000
v -1.500004 0.000000 -0.999994
v -0.500006 0.000000 -1.499998
v -1.000000 0.000000 0.000007
v -1.000005 0.000000 -1.499996
v -1.500005 0.000000 -1.499994
v -1.000000 0.000000 0.000004
v -1.500000 0.000000 0.000006
v -0.999996 0.000000 0.500007
v -1.500002 0.000000 -0.499994
v -1.500000 0.000000 0.000011
v -1.499996 0.000000 0.500011
v -1.499996 0.000000 1.000005
v 0.000006 0.000000 1.500000
v -0.999998 0.000000 0.500004
v -1.499998 0.000000 0.500005
v -1.499994 0.000000 1.500005
v -0.999994 0.000000 1.500004
v 1.499998 0.000000 -0.500006
v -0.499994 0.000000 1.500002
v 1.000005 0.000000 1.499996
v -0.999996 0.000000 1.000004
v 0.000004 0.000000 1.000000
v -0.499996 0.000000 1.000002
v 1.500011 0.000000 1.499989
v 0.500006 0.000000 1.499998
v 1.000004 0.000000 0.999996
v 0.500004 0.000000 0.999998
v 1.499996 0.000000 -0.500011
v 1.000011 0.000000 1.499993
v 1.500007 0.000000 0.999989
v 1.500003 0.000000 0.499989
v 1.000003 0.000000 0.499993
v 1.000007 0.000000 0.999993
v 1.000000 0.000000 -0.000007
v 1.500000 0.000000 -0.000011
v 0.999996 0.000000 -0.500007
v 0.999998 0.000000 -0.500004
v 1.499996 0.000000 -1.000005
v 0.999996 0.000000 -1.000004
v -1.500000 -0.500000 1.000000
v 0.000000 -1.000000 -1.500000
v 1.500000 0.000000 1.000000
v 1.500000 0.000000 1.500000
v 1.500000 -0.500000 0.500000
v 1.500000 -1.500000 -1.000000
v 1.500000 -0.500000 -1.500000
v 1.500000 -0.500000 -0.500000
v 1.500000 0.000000 -1.000000
v 0.500000 0.000000 -1.500000
v 1.500000 0.000000 -0.500000
v 0.000000 -0.500000 -1.500000
v 1.500000 0.000000 0.000000
v -0.500000 -0.500000 -1.500000
v 1.500000 0.000000 0.500000
v -0.500000 -1.000000 -1.500000
v 1.000000 0.000000 -1.500000
v -1.500000 -1.500000 -0.500000
v -1.500000 -1.000000 0.000000
v -1.500000 -1.000000 -1.500000
v -1.000000 0.000000 -1.500000
v -0.500000 0.000000 -1.500000
v -1.500000 0.000000 -1.500000
v 0.000000 -0.500000 1.500000
v -1.500000 0.000000 -1.000000
v -1.500000 -0.500000 0.500000
v -1.000000 -0.500000 1.500000
v -1.500000 0.000000 1.500000
v -1.500000 -0.500000 0.000000
v -1.500000 -1.000000 -1.000000
v -1.500000 0.000000 1.000000
v -1.500000 0.000000 0.500000
v -1.000000 0.000000 1.500000
v -1.500000 -0.500000 1.500000
v -1.500000 0.000000 -0.500000
v -1.500000 -0.500000 -0.500000
v -1.500000 0.000000 0.000000
v 0.000000 -1.000000 1.500000
v -0.500000 0.000000 1.500000
v 1.500000 -1.000000 1.500000
v 0.000000 0.000000 1.500000
v 1.000000 -1.000000 1.500000
v 1.000000 -1.000000 -1.500000
v 1.500000 -1.500000 1.500000
v -1.000000 -1.500000 1.500000
v 0.500000 0.000000 1.500000
v 1.500000 -0.500000 1.500000
v 1.000000 0.000000 1.500000
v -0.500000 -0.500000 1.500000
v 1.000000 -1.500000 1.500000
v -0.500000 -1.500000 1.500000
v 0.500000 -1.000000 1.500000
v 0.500000 -0.500000 1.500000
v 1.000000 -0.500000 1.500000
v 0.500000 -1.500000 1.500000
v -1.500000 -1.000000 1.500000
v 0.000000 -1.500000 1.500000
v -1.500000 -1.500000 1.500000
v -0.500000 -1.000000 1.500000
v -1.000000 -1.000000 1.500000
v -1.500000 -1.500000 -1.000000
v -1.500000 -1.000000 0.500000
v 1.500000 -0.500000 1.000000
v -1.500000 -1.000000 -0.500000
v -1.500000 -0.500000 -1.000000
v -1.500000 -0.500000 -1.500000
v -0.500000 -1.500000 -1.500000
v -1.500000 -1.500000 0.000000
v -1.500000 -1.500000 0.500000
v -1.500000 -1.500000 1.000000
v 1.500000 -1.000000 1.000000
v 1.500000 -1.500000 0.500000
v -1.500000 -1.000000 1.000000
v 1.500000 -1.500000 1.000000
v 1.500000 -1.500000 -1.500000
v 1.500000 -1.500000 0.000000
v 1.500000 -1.000000 0.500000
v 1.500000 -0.500000 0.000000
v 1.000000 -0.500000 -1.500000
v 1.500000 -0.500000 -1.000000
v 1.500000 -1.500000 -0.500000
v 1.500000 -1.000000 -1.000000
v 1.500000 -1.000000 0.000000
v 1.500000 -1.000000 -1.500000
v 1.000000 -1.500000 -1.500000
v 0.500000 -0.500000 -1.500000
v 0.500000 -1.000000 -1.500000
v -1.500000 -1.500000 -1.500000
v -1.000000 -1.000000 -1.500000
v -1.000000 -1.500000 -1.500000
v 0.000000 -1.500000 -1.500000
v 0.500000 -1.500000 -1.500000
vt 0.249609 0.250195
vt 0.000391 0.250195
vt 0.000391 0.374805
vt 0.249609 0.374805
vt 0.250391 0.250195
vt 0.499609 0.250195
vt 0.499609 0.374805
vt 0.250391 0.374805
vt 0.000391 0.250195
vt 0.249609 0.250195
vt 0.249609 0.374805
vt 0.000391 0.374805
vt 0.000391 0.250195
vt 0.249609 0.250195
vt 0.249609 0.374805
vt 0.000391 0.374805
vt 0.250391 0.250195
vt 0.499609 0.250195
vt 0.499609 0.374805
vt 0.250391 0.374805
vt 0.000391 0.250195
vt 0.249609 0.250195
vt 0.249609 0.374805
vt 0.000391 0.374805
vt 0.249609 0.250195
vt 0.000391 0.250195
vt 0.000391 0.374805
vt 0.249609 0.374805
vt 0.000391 0.250195
vt 0.249609 0.250195
vt 0.249609 0.374805
vt 0.000391 0.374805
vt 0.000391 0.250195
vt 0.249609 0.250195
vt 0.249609 0.374805
vt 0.000391 0.374805
vt 0.000391 0.250195
vt 0.249609 0.250195
vt 0.249609 0.374805
vt 0.000391 0.374805
vt 0.000391 0.250195
vt 0.249609 0.250195
vt 0.249609 0.374805
vt 0.000391 0.374805
vt 0.000391 0.250195
vt 0.249609 0.250195
vt 0.249609 0.374805
vt 0.000391 0.374805
vt 0.249609 0.374805
vt 0.000391 0.374805
vt 0.000391 0.250195
vt 0.249609 0.250195
vt 0.249609 0.374805
vt 0.000391 0.374805
vt 0.000391 0.250195
vt 0.249609 0.250195
vt 0.250391 0.374805
vt 0.499609 0.374805
vt 0.499609 0.250195
vt 0.250391 0.250195
vt 0.249609 0.374805
vt 0.000391 0.374805
vt 0.000391 0.250195
vt 0.249609 0.250195
vt 0.249609 0.374805
vt 0.000391 0.374805
vt 0.000391 0.250195
vt 0.249609 0.250195
vt 0.249609 0.374805
vt 0.000391 0.374805
vt 0.000391 0.250195
vt 0.249609 0.250195
vt 0.249609 0.374805
vt 0.000391 0.374805
vt 0.000391 0.250195
vt 0.249609 0.250195
vt 0.000391 0.374805
vt 0.000391 0.250195
vt 0.000391 0.374805
vt 0.249609 0.374805
vt 0.249609 0.250195
vt 0.000391 0.250195
vt 0.000391 0.374805
vt 0.249609 0.374805
vt 0.249609 0.250195
vt 0.000391 0.250195
vt 0.249609 0.374805
vt 0.000391 0.374805
vt 0.000391 0.250195
vt 0.249609 0.250195
vt 0.249609 0.250195
vt 0.000391 0.250195
vt 0.249609 0.250195
vt 0.000391 0.250195
vt 0.000391 0.374805
vt 0.249609 0.374805
vt 0.249609 0.250195
vt 0.000391 0.250195
vt 0.000391 0.374805
vt 0.249609 0.374805
vt 0.000391 0.250195
vt 0.249609 0.250195
vt 0.249609 0.374805
vt 0.000391 0.374805
vt 0.000391 0.250195
vt 0.249609 0.250195
vt 0.249609 0.374805
vt 0.000391 0.374805
vt 0.000391 0.374805
vt 0.249609 0.374805
vt 0.249609 0.250195
vt 0.000391 0.250195
vt 0.000391 0.374805
vt 0.000391 0.250195
vt 0.249609 0.374805
vt 0.000391 0.374805
vt 0.000391 0.250195
vt 0.249609 0.250195
vt 0.249609 0.374805
vt 0.000391 0.374805
vt 0.000391 0.250195
vt 0.249609 0.250195
vt 0.249609 0.374805
vt 0.249609 0.250195
vt 0.000391 0.250195
vt 0.249609 0.250195
vt 0.249609 0.374805
vt 0.000391 0.374805
vt 0.000391 0.250195
vt 0.249609 0.250195
vt 0.249609 0.374805
vt 0.000391 0.374805
vt 0.000391 0.250195
vt 0.249609 0.250195
vt 0.249609 0.374805
vt 0.000391 0.374805
vt 0.000391 0.375195
vt 0.249609 0.375195
vt 0.249609 0.499805
vt 0.000391 0.499805
vt 0.500391 0.375195
vt 0.749609 0.375195
vt 0.749609 0.499805
vt 0.500391 0.499805
vt 0.250391 0.375195
vt 0.499609 0.375195
vt 0.499609 0.499805
vt 0.250391 0.499805
vt 0.250391 0.375195
vt 0.499609 0.375195
vt 0.499609 0.499805
vt 0.250391 0.499805
vt 0.250391 0.375195
vt 0.499609 0.375195
vt 0.499609 0.499805
vt 0.250391 0.499805
vt 0.250391 0.375195
vt 0.499609 0.375195
vt 0.499609 0.499805
vt 0.250391 0.499805
vt 0.000391 0.375195
vt 0.249609 0.375195
vt 0.249609 0.499805
vt 0.000391 0.499805
vt 0.250391 0.375195
vt 0.499609 0.375195
vt 0.499609 0.499805
vt 0.250391 0.499805
vt 0.250391 0.375195
vt 0.499609 0.375195
vt 0.499609 0.499805
vt 0.250391 0.499805
vt 0.250391 0.375195
vt 0.499609 0.375195
vt 0.499609 0.499805
vt 0.250391 0.499805
vt 0.250391 0.375195
vt 0.499609 0.375195
vt 0.499609 0.499805
vt 0.250391 0.499805
vt 0.500391 0.375195
vt 0.749609 0.375195
vt 0.749609 0.499805
vt 0.500391 0.499805
vt 0.000391 0.375195
vt 0.249609 0.375195
vt 0.249609 0.499805
vt 0.000391 0.499805
vt 0.500391 0.375195
vt 0.749609 0.375195
vt 0.749609 0.499805
vt 0.500391 0.499805
vt 0.250391 0.375195
vt 0.499609 0.375195
vt 0.499609 0.499805
vt 0.250391 0.499805
vt 0.250391 0.375195
vt 0.499609 0.375195
vt 0.499609 0.499805
vt 0.250391 0.499805
vt 0.250391 0.375195
vt 0.499609 0.375195
vt 0.499609 0.499805
vt 0.250391 0.499805
vt 0.250391 0.375195
vt 0.499609 0.375195
vt 0.499609 0.499805
vt 0.250391 0.499805
vt 0.000391 0.375195
vt 0.249609 0.375195
vt 0.249609 0.499805
vt 0.000391 0.499805
vt 0.250391 0.375195
vt 0.499609 0.375195
vt 0.499609 0.499805
vt 0.250391 0.499805
vt 0.250391 0.375195
vt 0.499609 0.375195
vt 0.499609 0.499805
vt 0.250391 0.499805
vt 0.250391 0.375195
vt 0.499609 0.375195
vt 0.499609 0.499805
vt 0.250391 0.499805
vt 0.250391 0.375195
vt 0.499609 0.375195
vt 0.499609 0.499805
vt 0.250391 0.499805
vt 0.500391 0.375195
vt 0.749609 0.375195
vt 0.749609 0.499805
vt 0.500391 0.499805
vt 0.750391 0.375195
vt 0.999609 0.375195
vt 0.999609 0.499805
vt 0.750391 0.499805
vt 0.750391 0.375195
vt 0.999609 0.375195
vt 0.999609 0.499805
vt 0.750391 0.499805
vt 0.750391 0.375195
vt 0.999609 0.375195
vt 0.999609 0.499805
vt 0.750391 0.499805
vt 0.750391 0.375195
vt 0.999609 0.375195
vt 0.999609 0.499805
vt 0.750391 0.499805
vt 0.750391 0.375195
vt 0.999609 0.375195
vt 0.999609 0.499805
vt 0.750391 0.499805
vt 0.750391 0.375195
vt 0.999609 0.375195
vt 0.999609 0.499805
vt 0.750391 0.499805
vt 0.750391 0.375195
vt 0.999609 0.375195
vt 0.999609 0.499805
vt 0.750391 0.499805
vt 0.750391 0.375195
vt 0.999609 0.375195
vt 0.999609 0.499805
vt 0.750391 0.499805
vt 0.750391 0.375195
vt 0.999609 0.375195
vt 0.999609 0.499805
vt 0.750391 0.499805
vt 0.750391 0.375195
vt 0.999609 0.375195
vt 0.999609 0.499805
vt 0.750391 0.499805
vt 0.750391 0.375195
vt 0.999609 0.375195
vt 0.999609 0.499805
vt 0.750391 0.499805
vt 0.750391 0.375195
vt 0.999609 0.375195
vt 0.999609 0.499805
vt 0.750391 0.499805
vt 0.750391 0.375195
vt 0.999609 0.375195
vt 0.999609 0.499805
vt 0.750391 0.499805
vt 0.750391 0.375195
vt 0.999609 0.375195
vt 0.999609 0.499805
vt 0.750391 0.499805
vt 0.750391 0.375195
vt 0.999609 0.375195
vt 0.999609 0.499805
vt 0.750391 0.499805
vt 0.750391 0.375195
vt 0.999609 0.375195
vt 0.999609 0.499805
vt 0.750391 0.499805
vt 0.750391 0.375195
vt 0.999609 0.375195
vt 0.999609 0.499805
vt 0.750391 0.499805
vt 0.750391 0.375195
vt 0.999609 0.375195
vt 0.999609 0.499805
vt 0.750391 0.499805
vt 0.750391 0.375195
vt 0.999609 0.375195
vt 0.999609 0.499805
vt 0.750391 0.499805
vt 0.750391 0.375195
vt 0.999609 0.375195
vt 0.999609 0.499805
vt 0.750391 0.499805
vt 0.750391 0.375195
vt 0.999609 0.375195
vt 0.999609 0.499805
vt 0.750391 0.499805
vt 0.750391 0.375195
vt 0.999609 0.375195
vt 0.999609 0.499805
vt 0.750391 0.499805
vt 0.750391 0.375195
vt 0.999609 0.375195
vt 0.999609 0.499805
vt 0.750391 0.499805
vt 0.750391 0.375195
vt 0.999609 0.375195
vt 0.999609 0.499805
vt 0.750391 0.499805
vt 0.750391 0.375195
vt 0.999609 0.375195
vt 0.999609 0.499805
vt 0.750391 0.499805
vt 0.750391 0.375195
vt 0.999609 0.375195
vt 0.999609 0.499805
vt 0.750391 0.499805
vt 0.750391 0.375195
vt 0.999609 0.375195
vt 0.999609 0.499805
vt 0.750391 0.499805
vt 0.750391 0.375195
vt 0.999609 0.375195
vt 0.999609 0.499805
vt 0.750391 0.499805
vt 0.750391 0.375195
vt 0.999609 0.375195
vt 0.999609 0.499805
vt 0.750391 0.499805
vt 0.750391 0.375195
vt 0.999609 0.375195
vt 0.999609 0.499805
vt 0.750391 0.499805
vt 0.750391 0.375195
vt 0.999609 0.375195
vt 0.999609 0.499805
vt 0.750391 0.499805
vt 0.750391 0.375195
vt 0.999609 0.375195
vt 0.999609 0.499805
vt 0.750391 0.499805
vt 0.750391 0.375195
vt 0.999609 0.375195
vt 0.999609 0.499805
vt 0.750391 0.499805
vt 0.750391 0.375195
vt 0.999609 0.375195
vt 0.999609 0.499805
vt 0.750391 0.499805
vt 0.750391 0.375195
vt 0.999609 0.375195
vt 0.999609 0.499805
vt 0.750391 0.499805
vt 0.750391 0.375195
vt 0.999609 0.375195
vt 0.999609 0.499805
vt 0.750391 0.499805
vt 0.750391 0.375195
vt 0.999609 0.375195
vt 0.999609 0.499805
vt 0.750391 0.499805
vt 0.750391 0.375195
vt 0.999609 0.375195
vt 0.999609 0.499805
vt 0.750391 0.499805
vt 0.750391 0.375195
vt 0.999609 0.375195
vt 0.999609 0.499805
vt 0.750391 0.499805
vt 0.750391 0.375195
vt 0.999609 0.375195
vt 0.999609 0.499805
vt 0.750391 0.499805
vt 0.750391 0.375195
vt 0.999609 0.375195
vt 0.999609 0.499805
vt 0.750391 0.499805
vt 0.750391 0.375195
vt 0.999609 0.375195
vt 0.999609 0.499805
vt 0.750391 0.499805
vt 0.750391 0.375195
vt 0.999609 0.375195
vt 0.999609 0.499805
vt 0.750391 0.499805
vt 0.750391 0.375195
vt 0.999609 0.375195
vt 0.999609 0.499805
vt 0.750391 0.499805
vt 0.750391 0.375195
vt 0.999609 0.375195
vt 0.999609 0.499805
vt 0.750391 0.499805
vt 0.750391 0.375195
vt 0.999609 0.375195
vt 0.999609 0.499805
vt 0.750391 0.499805
vt 0.750391 0.375195
vt 0.999609 0.375195
vt 0.999609 0.499805
vt 0.750391 0.499805
vt 0.750391 0.375195
vt 0.999609 0.375195
vt 0.999609 0.499805
vt 0.750391 0.499805
vn 0.0000 1.0000 0.0000
vn 1.0000 0.0000 0.0000
vn 0.0000 0.0000 -1.0000
vn -1.0000 0.0000 0.0000
vn 0.0000 0.0000 1.0000
usemtl beatboxers_forest_tilemap
s off
f 16/1/1 17/2/1 18/3/1 19/4/1
f 2/5/1 28/6/1 31/7/1 15/8/1
f 36/9/1 35/10/1 8/11/1 12/12/1
f 3/13/1 45/14/1 7/15/1 8/16/1
f 4/17/1 3/18/1 8/19/1 1/20/1
f 8/21/1 7/22/1 6/23/1 5/24/1
f 20/25/1 21/26/1 22/27/1 23/28/1
f 24/29/1 25/30/1 26/31/1 27/32/1
f 28/33/1 34/34/1 30/35/1 31/36/1
f 14/37/1 13/38/1 32/39/1 35/40/1
f 33/41/1 14/42/1 35/43/1 36/44/1
f 34/45/1 11/46/1 39/47/1 30/48/1
f 11/49/1 29/50/1 38/51/1 39/52/1
f 13/53/1 10/54/1 40/55/1 32/56/1
f 44/57/1 37/58/1 42/59/1 45/60/1
f 43/61/1 44/62/1 45/63/1 3/64/1
f 110/65/1 37/66/1 102/67/1 47/68/1
f 103/69/1 42/70/1 37/71/1 110/72/1
f 53/73/1 49/74/1 48/75/1 54/76/1
f 50/77/1 53/73/1 54/76/1 56/78/1
f 51/79/1 50/80/1 56/81/1 58/82/1
f 55/83/1 51/84/1 58/85/1 59/86/1
f 63/87/1 52/88/1 51/89/1 55/90/1
f 61/91/1 60/92/1 52/88/1 63/87/1
f 62/93/1 57/94/1 64/95/1 65/96/1
f 66/97/1 75/98/1 68/99/1 69/100/1
f 70/101/1 71/102/1 75/103/1 66/104/1
f 71/105/1 73/106/1 77/107/1 75/108/1
f 73/109/1 67/110/1 76/111/1 77/112/1
f 67/110/1 79/113/1 81/114/1 76/111/1
f 79/115/1 74/116/1 80/117/1 81/118/1
f 78/119/1 84/120/1 87/121/1 83/122/1
f 84/120/1 85/123/1 86/124/1 87/121/1
f 85/125/1 89/126/1 88/127/1 86/128/1
f 89/129/1 82/130/1 90/131/1 88/132/1
f 91/133/1 72/134/1 92/135/1 93/136/1
f 140/137/2 156/138/2 96/139/2 97/140/2
f 173/141/2 100/142/2 47/143/2 102/144/2
f 101/145/2 173/146/2 102/147/2 104/148/2
f 171/149/2 101/150/2 104/151/2 106/152/2
f 98/153/2 171/154/2 106/155/2 108/156/2
f 156/157/2 98/158/2 108/159/2 96/160/2
f 100/161/3 172/162/3 110/163/3 47/164/3
f 172/165/3 179/166/3 103/167/3 110/168/3
f 179/169/3 105/170/3 41/171/3 103/172/3
f 105/173/3 107/174/3 115/175/3 41/176/3
f 107/177/3 46/178/3 114/179/3 115/180/3
f 46/181/3 159/182/3 116/183/3 114/184/3
f 159/185/4 158/186/4 118/187/4 116/188/4
f 94/189/4 127/190/4 121/191/4 124/192/4
f 119/193/4 94/194/4 124/195/4 125/196/4
f 122/197/4 119/198/4 125/199/4 130/200/4
f 158/201/4 129/202/4 128/203/4 118/204/4
f 129/205/4 122/206/4 130/207/4 128/208/4
f 127/209/5 120/210/5 126/211/5 121/212/5
f 120/213/5 142/214/5 132/215/5 126/216/5
f 142/217/5 117/218/5 134/219/5 132/220/5
f 117/221/5 146/222/5 139/223/5 134/224/5
f 146/225/5 147/226/5 141/227/5 139/228/5
f 147/229/5 140/230/5 97/231/5 141/232/5
f 149/233/5 153/234/5 120/235/5 127/236/5
f 153/237/5 152/238/5 142/239/5 120/240/5
f 152/241/5 131/242/5 117/243/5 142/244/5
f 131/245/5 145/246/5 146/247/5 117/248/5
f 145/249/5 135/250/5 147/251/5 146/252/5
f 135/253/5 133/254/5 140/255/5 147/256/5
f 143/257/5 137/258/5 133/259/5 135/260/5
f 148/261/5 143/262/5 135/263/5 145/264/5
f 150/265/5 148/266/5 145/267/5 131/268/5
f 144/269/5 150/270/5 131/271/5 152/272/5
f 138/273/5 144/274/5 152/275/5 153/276/5
f 151/277/5 138/278/5 153/279/5 149/280/5
f 166/281/4 149/282/4 127/283/4 94/284/4
f 155/285/4 166/286/4 94/287/4 119/288/4
f 112/289/4 155/290/4 119/291/4 122/292/4
f 157/293/4 112/294/4 122/295/4 129/296/4
f 123/297/4 157/298/4 129/299/4 158/300/4
f 113/301/4 123/302/4 158/303/4 159/304/4
f 181/305/4 154/306/4 123/307/4 113/308/4
f 154/309/4 111/310/4 157/311/4 123/312/4
f 111/313/4 161/314/4 112/315/4 157/316/4
f 161/317/4 162/318/4 155/319/4 112/320/4
f 162/321/4 163/322/4 166/323/4 155/324/4
f 163/325/4 151/326/4 149/327/4 166/328/4
f 133/329/2 164/330/2 156/331/2 140/332/2
f 137/333/2 167/334/2 164/335/2 133/336/2
f 167/337/2 165/338/2 170/339/2 164/340/2
f 164/341/2 170/342/2 98/343/2 156/344/2
f 170/345/2 176/346/2 171/347/2 98/348/2
f 176/349/2 9/350/2 101/351/2 171/352/2
f 9/353/2 175/354/2 173/355/2 101/356/2
f 175/357/2 177/358/2 100/359/2 173/360/2
f 99/361/2 168/362/2 177/363/2 175/364/2
f 174/365/2 99/366/2 175/367/2 9/368/2
f 169/369/2 174/370/2 9/371/2 176/372/2
f 165/373/2 169/374/2 176/375/2 170/376/2
f 177/377/3 136/378/3 172/379/3 100/380/3
f 168/381/3 178/382/3 136/383/3 177/384/3
f 178/385/3 185/386/3 180/387/3 136/388/3
f 136/389/3 180/390/3 179/391/3 172/392/3
f 180/393/3 95/394/3 105/395/3 179/396/3
f 95/397/3 109/398/3 107/399/3 105/400/3
f 109/401/3 182/402/3 46/403/3 107/404/3
f 182/405/3 113/406/3 159/407/3 46/408/3
f 183/409/3 181/410/3 113/411/3 182/412/3
f 160/413/3 183/414/3 182/415/3 109/416/3
f 184/417/3 160/418/3 109/419/3 95/420/3
f 185/421/3 184/422/3 95/423/3 180/424/3
