# Blender v2.79 (sub 0) OBJ File: 'Cliffside 5x6x3.blend'
# www.blender.org
mtllib Cliffside 5x6x3.mtl
o Cube
v 0.999926 0.499986 -1.499996
v 1.499926 0.499984 -1.499996
v -0.500076 0.499989 -1.499996
v 0.999928 0.999985 -1.499996
v -1.000070 1.499993 -1.499996
v 1.999924 -0.000018 -1.499996
v 1.999926 0.499982 -1.499996
v 0.999929 1.499985 -1.499996
v 1.999928 0.999982 -1.499996
v 1.499928 0.999984 -1.499996
v 0.499924 -0.000013 -1.499996
v -1.000076 -0.000007 -1.499996
v 1.999929 1.499982 -1.499996
v 1.499929 1.499984 -1.499996
v 1.499924 1.499993 -1.500000
v 1.499924 1.499993 -0.500000
v 1.499924 1.499993 -1.000000
v 1.499924 1.499993 0.000000
v 1.999924 1.499993 -1.500000
v 1.999924 1.499993 -0.500000
v 1.999924 1.499993 -1.000000
v 1.499924 1.499993 0.500000
v 1.499924 -0.000016 -1.499996
v 1.999924 1.499993 0.999993
v 1.499924 1.499993 0.999994
v 1.999924 1.499993 0.000000
v 0.999924 1.499993 0.999996
v 1.999924 1.499993 0.500000
v 0.999922 1.499993 0.499996
v 0.499922 1.499993 0.499998
v 1.999922 1.499993 0.499993
v 0.499924 1.499993 0.999998
v -0.000076 1.499993 1.000000
v 0.000000 1.500003 -0.499989
v -0.000078 1.499993 0.500000
v 1.499922 1.499993 0.499994
v -0.500076 -0.000007 1.000004
v -1.000070 0.499991 0.500007
v -1.000070 0.499992 1.000007
v -1.000070 -0.000008 1.000007
v -1.000070 0.999991 -0.999995
v -1.000070 1.499991 -0.999996
v -1.000070 0.999993 -0.499995
v -1.000070 -0.000009 -0.999991
v -1.000070 1.000002 0.500004
v -1.000070 0.999998 0.000004
v -1.000070 1.000005 1.000004
v -1.000070 1.499995 0.000004
v -1.000070 1.500002 0.500000
v -1.000070 1.500005 1.000000
v -1.000070 0.500005 1.000007
v -1.000070 0.500002 0.500007
v -1.000070 0.499997 0.500007
v -1.000070 1.499998 0.000000
v -1.000070 0.999997 0.500005
v -1.000070 1.499993 -0.499996
v -1.000070 0.499991 -0.999993
v -1.000070 -0.000003 0.500009
v -1.000070 -0.000009 0.500007
v -1.000070 0.499993 -0.499993
v -0.500076 0.499996 1.000004
v -1.000072 1.499993 1.000004
v -1.000072 -0.000007 1.000004
v -0.500072 -0.000004 1.000004
v -0.000076 -0.000007 1.000004
v -1.000076 0.499993 1.000004
v -0.500083 1.499996 1.000004
v -0.500076 0.499993 1.000004
v -0.000076 0.499993 1.000004
v -0.000076 0.999993 1.000004
v -0.500076 0.999993 1.000004
v -0.500076 0.499991 1.000004
v -0.500074 0.999991 1.000004
v -1.000074 0.999993 1.000004
v -0.000083 1.500000 1.000004
v -0.500072 1.499991 1.000004
v -0.500079 0.999996 1.000004
v -0.000079 1.000000 1.000004
v -0.000065 1.499989 0.000003
v -0.000056 1.499989 0.500004
v 0.499940 1.499989 0.000000
v -0.000070 1.499989 -0.999996
v 0.999944 1.499989 0.499996
v 0.499944 1.499989 0.500000
v 0.499945 1.499989 -0.000002
v 0.499940 1.499989 -0.500002
v 0.999933 1.499989 -1.000003
v 1.499933 1.499989 -1.000007
v 0.499933 1.499989 -1.000000
v 0.999937 1.499989 -0.500003
v 1.499944 1.499989 0.499993
v 0.999940 1.499989 -0.500007
v 0.999945 1.499989 -0.000007
v -0.500070 1.499989 -1.499996
v -0.500070 1.499989 -0.999996
v -1.000070 1.499989 -0.999996
v -1.000070 1.499989 -1.499996
v -0.000070 1.499989 -1.499996
v -0.500000 1.500003 -0.999989
v 0.000002 1.500003 -0.999989
v -0.499998 1.500003 -0.999991
v -0.500000 1.500003 -0.499991
v -1.000000 1.500003 -0.999989
v -1.000000 1.500003 -0.499989
v -0.500000 1.500003 -0.499989
v -1.000000 1.500003 0.000011
v -0.499994 1.500003 1.000012
v -0.499996 1.500003 0.500012
v -0.999996 1.500003 0.000018
v -0.499996 1.500003 0.000014
v -0.500000 1.500003 -0.499986
v -1.000000 1.500003 -0.499982
v -1.000000 1.500003 0.500011
v -1.000000 1.500003 1.000011
v -0.500000 1.500003 1.000011
v 0.000006 1.500003 1.000010
v 0.000004 1.500003 0.500011
v 0.000000 1.500003 0.000011
v -0.500000 1.500003 0.000011
v -0.500000 1.500003 0.500011
v 0.000000 1.500003 0.500011
v 0.999924 -0.000014 -1.499996
v 0.499930 1.499989 -1.499996
v -0.500076 -0.000009 -1.499996
v -0.000074 0.499989 -1.499996
v -0.000076 -0.000011 -1.499996
v -1.000072 0.999993 -1.499996
v -1.000074 0.499993 -1.499996
v -0.500072 0.999991 -1.499996
v -0.500074 0.499991 -1.499996
v -0.500070 1.499991 -1.499996
v -0.000072 0.999989 -1.499996
v 0.499929 1.499987 -1.499996
v 0.499928 0.999987 -1.499996
v -0.000076 0.499986 -1.499996
v -0.000072 0.999986 -1.499996
v -0.500072 0.999989 -1.499996
v 0.499926 0.499987 -1.499996
v -0.000067 1.499989 -0.499996
v -0.000060 1.499989 0.000004
v 0.499935 1.499989 0.000002
v 0.499933 1.499989 -0.499998
v 0.499937 1.499989 -0.500000
v 0.999930 1.499989 -1.499996
v 1.499937 1.499989 -0.500007
v -0.000063 1.499989 -0.499996
v -0.000067 1.499989 -0.999996
v 1.499940 1.499989 -0.000007
v 0.999940 1.499989 -0.000003
v -1.000070 -0.000007 -0.499991
v 1.499930 1.499989 -1.499996
v 0.499930 1.499989 -0.999996
v -1.000070 0.999995 0.000005
v 0.999930 1.499989 -0.999996
v 1.499930 1.499989 -0.999996
v -1.000070 0.999989 -1.499995
v -1.000070 0.499995 0.000007
v -1.000070 -0.000005 0.000009
v -1.000070 0.499989 -1.499993
v -1.000070 -0.000011 -1.499991
v 1.499930 1.499987 1.000004
v 1.999930 1.499973 0.000004
v 1.999930 -0.000011 -1.500012
v 1.999930 1.499989 -1.499996
v 1.999930 1.499989 1.000004
v 1.999930 0.999989 -1.500002
v 1.999930 0.499979 -0.500007
v 1.999930 1.499984 -0.999996
v 1.999930 0.999963 0.999998
v 1.999930 1.499979 -0.499996
v 1.999930 -0.000027 -0.000012
v 1.999930 1.499963 1.000004
v 1.999930 0.999968 0.499998
v 1.999930 1.499968 0.500004
v 1.999930 -0.000021 -0.500012
v 1.999931 0.999989 1.000004
v 1.999930 0.499973 -0.000007
v 1.999930 0.499968 0.499993
v 1.999930 -0.000032 0.499988
v 1.999930 -0.000037 0.999988
v 1.999930 0.999979 -0.500002
v 1.999930 0.999973 -0.000002
v 1.999930 0.999984 -1.000002
v 1.999930 -0.000016 -1.000012
v 1.999930 0.499984 -1.000007
v 1.999930 0.499989 -1.500007
v 1.999930 0.499963 0.999993
v 0.499930 1.499984 1.000004
v 1.999933 0.999989 1.000004
v 0.499932 0.999984 1.000004
v 1.499937 0.499986 1.000004
v 1.999937 0.499989 1.000004
v 1.499933 0.999986 1.000004
v -0.000067 0.499982 1.000004
v 0.499933 0.499984 1.000004
v 1.499931 0.999987 1.000004
v 0.999930 1.499985 1.000004
v 0.999931 0.999985 1.000004
v -0.000070 1.499982 1.000004
v -0.000068 0.999982 1.000004
v 0.999930 1.499982 1.000004
v 0.499930 1.499979 1.000004
v 1.999933 0.499989 1.000004
v 0.999933 0.999982 1.000004
v 0.999937 0.499982 1.000004
v -0.000065 -0.000018 1.000004
v 0.499937 0.499979 1.000004
v 0.999933 0.499986 1.000004
v 1.999935 -0.000011 1.000004
v 0.499935 -0.000016 1.000004
v 1.499933 0.499987 1.000004
v -0.000063 0.499975 1.000004
v 1.499935 -0.000013 1.000004
v -0.000067 0.999975 1.000004
v 0.499933 0.999979 1.000004
v 0.999935 -0.000014 1.000004
vt 0.999609 0.250195
vt 0.750391 0.250195
vt 0.750391 0.374805
vt 0.999609 0.374805
vt 0.750390 0.374805
vt 0.750390 0.250195
vt 0.999610 0.250195
vt 0.999610 0.374805
vt 0.999610 0.374805
vt 0.750390 0.374805
vt 0.750390 0.250195
vt 0.249610 0.125195
vt 0.249610 0.249805
vt 0.000390 0.249805
vt 0.000390 0.125195
vt 0.000391 0.749805
vt 0.000391 0.625195
vt 0.249609 0.625195
vt 0.249609 0.749805
vt 0.499609 0.625195
vt 0.250391 0.625195
vt 0.250391 0.749805
vt 0.499609 0.749805
vt 0.499609 0.625195
vt 0.250391 0.625195
vt 0.250391 0.749805
vt 0.499609 0.749805
vt 0.499609 0.625195
vt 0.250391 0.625195
vt 0.250391 0.749805
vt 0.499609 0.749805
vt 0.000390 0.749805
vt 0.249610 0.749805
vt 0.249610 0.625195
vt 0.000390 0.625195
vt 0.499609 0.875195
vt 0.250391 0.875195
vt 0.250391 0.999805
vt 0.499609 0.999805
vt 0.499609 0.875195
vt 0.499609 0.999805
vt 0.250391 0.875195
vt 0.250391 0.999805
vt 0.999610 0.374805
vt 0.999610 0.250195
vt 0.750390 0.250195
vt 0.750390 0.374805
vt 0.999610 0.250195
vt 0.999610 0.374805
vt 0.750390 0.374805
vt 0.750390 0.250195
vt 0.999609 0.250195
vt 0.750391 0.250195
vt 0.750391 0.374805
vt 0.999609 0.374805
vt 0.999610 0.250195
vt 0.999610 0.374805
vt 0.750390 0.374805
vt 0.750390 0.250195
vt 0.750391 0.250195
vt 0.999609 0.250195
vt 0.999609 0.374805
vt 0.750391 0.374805
vt 0.999610 0.374805
vt 0.999610 0.250195
vt 0.750390 0.250195
vt 0.750390 0.374805
vt 0.999610 0.250195
vt 0.999610 0.374805
vt 0.750390 0.374805
vt 0.750390 0.250195
vt 0.750391 0.250195
vt 0.999609 0.374805
vt 0.750391 0.374805
vt 0.999610 0.250195
vt 0.750390 0.250195
vt 0.750390 0.374805
vt 0.750390 0.250195
vt 0.999610 0.250195
vt 0.999610 0.374805
vt 0.999609 0.374805
vt 0.000391 0.125195
vt 0.249609 0.125195
vt 0.249609 0.249805
vt 0.000391 0.249805
vt 0.750391 0.250195
vt 0.999609 0.250195
vt 0.999609 0.374805
vt 0.750391 0.374805
vt 0.000391 0.125195
vt 0.249609 0.125195
vt 0.249609 0.249805
vt 0.000391 0.249805
vt 0.750391 0.250195
vt 0.999609 0.250195
vt 0.999609 0.374805
vt 0.750391 0.374805
vt 0.750391 0.250195
vt 0.999609 0.374805
vt 0.750391 0.374805
vt 0.999610 0.374805
vt 0.750390 0.374805
vt 0.750390 0.250195
vt 0.999610 0.250195
vt 0.000391 0.125195
vt 0.249609 0.125195
vt 0.249609 0.249805
vt 0.000391 0.249805
vt 0.249609 0.000195
vt 0.000391 0.000195
vt 0.000391 0.124805
vt 0.249609 0.124805
vt 0.499609 0.750195
vt 0.250391 0.750195
vt 0.250391 0.874805
vt 0.499609 0.874805
vt 0.000390 0.000195
vt 0.000390 0.124805
vt 0.249610 0.124805
vt 0.249610 0.000195
vt 0.249609 0.000195
vt 0.000391 0.000195
vt 0.000391 0.124805
vt 0.249609 0.124805
vt 0.499610 0.874805
vt 0.250390 0.874805
vt 0.250390 0.750195
vt 0.499610 0.750195
vt 0.500391 0.625195
vt 0.749609 0.625195
vt 0.749609 0.749805
vt 0.500391 0.749805
vt 0.499611 0.750195
vt 0.499611 0.874805
vt 0.250389 0.874805
vt 0.250389 0.750195
vt 0.249610 0.874805
vt 0.000390 0.874805
vt 0.000390 0.750195
vt 0.249610 0.750195
vt 0.500391 0.750195
vt 0.749609 0.750195
vt 0.749609 0.874805
vt 0.500391 0.874805
vt 0.749609 0.750195
vt 0.500391 0.750195
vt 0.500391 0.874805
vt 0.749609 0.874805
vt 0.500391 0.875195
vt 0.749609 0.875195
vt 0.749609 0.999805
vt 0.500391 0.999805
vt 0.250391 0.749805
vt 0.250391 0.625195
vt 0.499609 0.625195
vt 0.499609 0.749805
vt 0.499609 0.874805
vt 0.250391 0.874805
vt 0.250391 0.750195
vt 0.499609 0.750195
vt 0.499609 0.874805
vt 0.499609 0.750195
vt 0.250391 0.750195
vt 0.250391 0.874805
vt 0.249610 0.249805
vt 0.249610 0.125195
vt 0.000390 0.125195
vt 0.000390 0.249805
vt 0.999609 0.250195
vt 0.750391 0.250195
vt 0.750391 0.374805
vt 0.999609 0.374805
vt 0.999609 0.250195
vt 0.750391 0.250195
vt 0.750391 0.374805
vt 0.999609 0.374805
vt 0.000390 0.249805
vt 0.249610 0.249805
vt 0.249610 0.125195
vt 0.000390 0.125195
vt 0.999609 0.250195
vt 0.750391 0.250195
vt 0.750391 0.374805
vt 0.999609 0.374805
vt 0.999609 0.250195
vt 0.750391 0.250195
vt 0.750391 0.374805
vt 0.999609 0.374805
vt 0.999610 0.374805
vt 0.750390 0.374805
vt 0.750390 0.250195
vt 0.999610 0.250195
vt 0.999609 0.250195
vt 0.750391 0.250195
vt 0.750391 0.374805
vt 0.999609 0.374805
vt 0.999609 0.250195
vt 0.750391 0.250195
vt 0.750391 0.374805
vt 0.999609 0.374805
vt 0.999609 0.250195
vt 0.750391 0.250195
vt 0.750391 0.374805
vt 0.999609 0.374805
vt 0.750390 0.374805
vt 0.750390 0.250195
vt 0.999610 0.250195
vt 0.999610 0.374805
vt 0.999609 0.250195
vt 0.750391 0.250195
vt 0.750391 0.374805
vt 0.999609 0.374805
vt 0.999609 0.250195
vt 0.750391 0.250195
vt 0.999609 0.374805
vt 0.249609 0.125195
vt 0.000391 0.125195
vt 0.000391 0.249805
vt 0.249609 0.249805
vt 0.499609 0.750195
vt 0.250391 0.750195
vt 0.250391 0.874805
vt 0.499609 0.874805
vt 0.250391 0.750195
vt 0.499609 0.750195
vt 0.499609 0.874805
vt 0.249609 0.000195
vt 0.000391 0.000195
vt 0.000391 0.124805
vt 0.249609 0.124805
vt 0.249609 0.000195
vt 0.000391 0.000195
vt 0.000391 0.124805
vt 0.249609 0.124805
vt 0.250391 0.625195
vt 0.499609 0.625195
vt 0.499609 0.749805
vt 0.250391 0.749805
vt 0.499610 0.999805
vt 0.250390 0.999805
vt 0.250390 0.875195
vt 0.499610 0.875195
vt 0.499609 0.625195
vt 0.250391 0.625195
vt 0.250391 0.749805
vt 0.499609 0.749805
vt 0.250391 0.625195
vt 0.250391 0.749805
vt 0.750390 0.250195
vt 0.750390 0.374805
vt 0.999610 0.374805
vt 0.999610 0.250195
vt 0.750391 0.250195
vt 0.999609 0.250195
vt 0.999609 0.374805
vt 0.750391 0.374805
vt 0.999610 0.374805
vt 0.999610 0.250195
vt 0.999611 0.374805
vt 0.999611 0.250195
vt 0.750389 0.250195
vt 0.750389 0.374805
vt 0.999611 0.374805
vt 0.999611 0.250195
vt 0.750389 0.250195
vt 0.750389 0.374805
vt 0.999609 0.250195
vt 0.750391 0.250195
vt 0.750391 0.374805
vt 0.000389 0.249805
vt 0.000389 0.125195
vt 0.249611 0.125195
vt 0.249611 0.249805
vt 0.999609 0.250195
vt 0.750391 0.250195
vt 0.750391 0.374805
vt 0.999609 0.374805
vt 0.999611 0.374805
vt 0.999611 0.250195
vt 0.750389 0.250195
vt 0.999611 0.374805
vt 0.999611 0.250195
vt 0.750389 0.250195
vt 0.750389 0.374805
vt 0.999611 0.250194
vt 0.999611 0.374806
vt 0.750389 0.374806
vt 0.000389 0.249805
vt 0.000389 0.125195
vt 0.249611 0.125195
vt 0.249611 0.249805
vt 0.999609 0.250195
vt 0.750391 0.250195
vt 0.750391 0.374805
vt 0.999609 0.374805
vt 0.999611 0.374805
vt 0.750389 0.250195
vt 0.750389 0.374805
vt 0.249610 0.249805
vt 0.000390 0.249805
vt 0.000390 0.125195
vt 0.249610 0.125195
vt 0.999609 0.250195
vt 0.750391 0.250195
vt 0.750391 0.374805
vt 0.999609 0.374805
vt 0.999611 0.250194
vt 0.999611 0.374806
vt 0.750389 0.374805
vt 0.750389 0.250195
vt 0.999611 0.374805
vt 0.750391 0.250195
vt 0.999609 0.250195
vt 0.999609 0.374805
vt 0.750391 0.374805
vt 0.750391 0.250195
vt 0.999609 0.250195
vt 0.999609 0.374805
vt 0.750391 0.374805
vt 0.249609 0.125195
vt 0.000391 0.125195
vt 0.000391 0.249805
vt 0.249609 0.249805
vt 0.999609 0.250195
vt 0.750391 0.250195
vt 0.750391 0.374805
vt 0.999609 0.374805
vt 0.999609 0.250195
vt 0.750391 0.250195
vt 0.750391 0.374805
vt 0.999609 0.374805
vt 0.249610 0.125195
vt 0.249610 0.249805
vt 0.000390 0.249805
vt 0.999609 0.250195
vt 0.750391 0.250195
vt 0.750391 0.374805
vt 0.999609 0.374805
vt 0.999609 0.250195
vt 0.750391 0.250195
vt 0.750391 0.374805
vt 0.999609 0.374805
vt 0.999610 0.374805
vt 0.999610 0.250195
vt 0.750390 0.374805
vt 0.750391 0.250195
vt 0.999609 0.250195
vt 0.999609 0.374805
vt 0.750391 0.374805
vt 0.999610 0.374805
vt 0.999610 0.250195
vt 0.750390 0.250195
vt 0.750390 0.374805
vt 0.999609 0.250195
vt 0.999609 0.374805
vn 0.0000 0.0000 -1.0000
vn 0.0000 1.0000 0.0000
vn -1.0000 0.0000 0.0000
vn -0.0000 0.0000 1.0000
vn 1.0000 0.0000 0.0000
usemtl beatboxers_forest_tilemap
s off
f 4/1/1 8/2/1 14/3/1 10/4/1
f 23/5/1 2/6/1 7/7/1 6/8/1
f 2/9/1 10/10/1 9/11/1 7/7/1
f 10/12/1 14/13/1 13/14/1 9/15/1
f 21/16/2 19/17/2 15/18/2 17/19/2
f 20/20/2 21/21/2 17/22/2 16/23/2
f 26/24/2 20/25/2 16/26/2 18/27/2
f 28/28/2 26/29/2 18/30/2 22/31/2
f 31/32/2 36/33/2 25/34/2 24/35/2
f 36/36/2 29/37/2 27/38/2 25/39/2
f 29/37/2 30/40/2 32/41/2 27/38/2
f 30/40/2 35/42/2 33/43/2 32/41/2
f 59/44/3 40/45/3 39/46/3 38/47/3
f 58/48/3 53/49/3 157/50/3 158/51/3
f 158/52/3 157/53/3 60/54/3 150/55/3
f 150/56/3 60/57/3 57/58/3 44/59/3
f 43/60/3 56/61/3 42/62/3 41/63/3
f 153/64/3 48/65/3 56/66/3 43/67/3
f 49/68/3 54/69/3 46/70/3 45/71/3
f 50/72/3 49/68/3 45/73/3 47/74/3
f 47/74/3 45/73/3 52/75/3 51/76/3
f 53/77/3 55/78/3 153/79/3 157/80/3
f 157/53/3 153/79/3 43/81/3 60/54/3
f 60/82/3 43/83/3 41/84/3 57/85/3
f 61/86/4 66/87/4 63/88/4 64/89/4
f 37/90/4 65/91/4 69/92/4 68/93/4
f 68/94/4 69/95/4 70/96/4 71/97/4
f 74/98/4 66/87/4 72/99/4 73/100/4
f 62/101/4 74/102/4 73/103/4 76/104/4
f 75/105/4 67/106/4 77/107/4 78/108/4
f 80/109/2 84/110/2 81/111/2 140/112/2
f 84/113/2 83/114/2 149/115/2 81/116/2
f 93/117/2 92/118/2 86/119/2 85/120/2
f 90/121/2 145/122/2 88/123/2 87/124/2
f 143/125/2 90/126/2 87/127/2 89/128/2
f 94/129/2 97/130/2 96/131/2 95/132/2
f 34/133/2 100/134/2 101/135/2 102/136/2
f 99/137/2 103/138/2 104/139/2 105/140/2
f 119/141/2 106/142/2 113/143/2 120/144/2
f 109/145/2 110/146/2 111/147/2 112/148/2
f 120/149/2 113/150/2 114/151/2 115/152/2
f 108/153/2 107/154/2 116/155/2 117/156/2
f 118/157/2 119/158/2 120/159/2 121/160/2
f 34/161/2 105/162/2 119/163/2 118/164/2
f 1/165/1 4/166/1 10/167/1 2/168/1
f 122/169/1 1/170/1 2/171/1 23/172/1
f 11/173/1 138/174/1 1/175/1 122/176/1
f 126/177/1 125/178/1 138/179/1 11/180/1
f 124/181/1 130/182/1 125/183/1 126/184/1
f 12/185/1 128/186/1 130/187/1 124/188/1
f 128/189/1 127/190/1 129/191/1 130/192/1
f 127/193/1 5/194/1 131/195/1 129/196/1
f 129/197/1 131/198/1 98/199/1 132/200/1
f 132/201/1 98/202/1 133/203/1 134/204/1
f 134/205/1 133/206/1 8/207/1 4/208/1
f 138/209/1 134/210/1 4/211/1 1/212/1
f 125/213/1 132/214/1 134/205/1 138/215/1
f 137/216/1 136/217/1 135/218/1 3/219/1
f 139/220/2 79/221/2 141/222/2 142/223/2
f 149/224/2 148/225/2 145/226/2 90/126/2
f 146/227/2 143/228/2 89/229/2 147/230/2
f 83/231/2 91/232/2 148/233/2 149/234/2
f 98/235/2 94/236/2 95/237/2 82/238/2
f 123/239/2 98/240/2 82/241/2 152/242/2
f 144/243/2 123/244/2 152/245/2 154/246/2
f 151/247/2 144/243/2 154/246/2 155/248/2
f 41/249/3 42/250/3 97/251/3 156/252/3
f 57/253/3 41/254/3 156/255/3 159/256/3
f 44/59/3 57/58/3 159/257/3 160/258/3
f 168/259/5 183/260/5 166/261/5 164/262/5
f 170/263/5 181/264/5 183/265/5 168/266/5
f 162/267/5 182/268/5 181/269/5 170/263/5
f 174/270/5 173/271/5 182/272/5 162/273/5
f 172/274/5 169/275/5 173/276/5 174/277/5
f 169/278/5 187/279/5 178/280/5 173/276/5
f 173/281/5 178/282/5 177/283/5 182/284/5
f 178/280/5 179/285/5 171/286/5 177/287/5
f 177/288/5 171/289/5 175/290/5 167/291/5
f 167/292/5 175/293/5 184/294/5 185/295/5
f 181/296/5 167/292/5 185/297/5 183/298/5
f 183/299/5 185/300/5 186/301/5 166/302/5
f 185/303/5 184/304/5 163/305/5 186/306/5
f 182/268/5 177/307/5 167/308/5 181/269/5
f 187/309/5 180/310/5 179/285/5 178/311/5
f 176/312/4 165/313/4 161/314/4 196/315/4
f 189/316/4 193/317/4 191/318/4 192/319/4
f 193/320/4 204/321/4 205/322/4 191/323/4
f 196/324/4 161/325/4 197/326/4 198/327/4
f 190/328/4 188/329/4 199/330/4 200/331/4
f 201/332/4 202/333/4 215/334/4 204/321/4
f 204/335/4 215/336/4 207/337/4 205/338/4
f 210/339/4 195/340/4 194/341/4 206/342/4
f 216/343/4 208/344/4 195/340/4 210/345/4
f 209/346/4 203/347/4 211/348/4 213/349/4
f 213/350/4 211/351/4 208/352/4 216/353/4
f 215/336/4 214/354/4 212/355/4 207/337/4
