# Blender v2.79 (sub 0) OBJ File: 'GrassRamp.blend'
# www.blender.org
mtllib GrassRamp.mtl
o Cube
v 0.635083 -0.105915 -0.259049
v 1.412512 0.521723 0.242617
v 1.023969 0.207027 0.241785
v 1.412165 0.523473 -0.257379
v 0.635426 -0.107669 0.240948
v 0.635768 -0.109423 0.740945
v 1.024312 0.205273 0.741782
v 1.023626 0.208781 -0.258211
v 1.800708 0.838169 -0.256547
v 1.412169 0.523477 -0.257374
v 1.412855 0.519969 0.742620
v 1.412512 0.521723 0.242623
v 1.801055 0.836419 0.243449
v 1.801401 0.834668 0.743450
v 1.801055 0.836419 0.243453
v 1.412512 0.521723 0.242619
v 1.412858 0.519972 0.742616
v 1.801974 0.614344 0.741785
v 1.817009 0.207027 0.741785
v 1.023969 0.207027 0.741785
v 1.821987 -0.101100 0.741785
v 1.023969 0.205986 0.741785
v 1.800109 0.832952 0.744719
v 1.023969 -0.102137 0.741785
v 0.630768 -0.110623 0.741785
v 1.523969 0.609470 0.741785
v 0.638364 -0.107583 0.741785
v 1.523969 -0.102381 0.741785
v 1.523969 0.609429 0.741785
v 1.523969 0.207027 0.741785
v 1.801974 0.614344 -0.257254
v 1.023969 -0.102137 -0.257254
v 0.635215 -0.106458 -0.261479
v 0.637247 -0.105579 -0.257659
v 1.817009 0.207027 -0.257254
v 1.523969 -0.102381 -0.257254
v 1.023969 0.207027 -0.257254
v 1.821987 -0.101100 -0.257254
v 1.023969 0.208409 -0.257254
v 1.800109 0.832952 -0.254321
v 1.524181 0.614023 -0.255631
v 1.523969 0.612965 -0.257254
v 1.523969 0.207027 -0.257254
vt 0.000391 0.250195
vt 0.249609 0.250195
vt 0.249609 0.374805
vt 0.000391 0.374805
vt 0.250391 0.250195
vt 0.499609 0.250195
vt 0.499609 0.374805
vt 0.250391 0.374805
vt 0.499609 0.250195
vt 0.250391 0.250195
vt 0.250391 0.374805
vt 0.499609 0.374805
vt 0.000391 0.250195
vt 0.249609 0.250195
vt 0.249609 0.374805
vt 0.000391 0.374805
vt 0.250391 0.250195
vt 0.499609 0.250195
vt 0.499609 0.374805
vt 0.250391 0.374805
vt 0.249610 0.374805
vt 0.249610 0.250195
vt 0.000390 0.250195
vt 0.000390 0.374805
vt 0.807287 0.375195
vt 0.994787 0.375195
vt 0.994787 0.499805
vt 0.807287 0.421875
vt 0.999609 0.375195
vt 0.750391 0.375195
vt 0.750391 0.499805
vt 0.999609 0.499805
vt 0.999609 0.375195
vt 0.750391 0.375195
vt 0.750391 0.499805
vt 0.999609 0.375195
vt 0.851915 0.375195
vt 0.992540 0.382812
vt 0.992540 0.499805
vt 0.851915 0.375195
vt 0.843359 0.375195
vt 0.999609 0.375195
vt 0.983984 0.499805
vt 0.843359 0.499805
vt 0.843359 0.375195
vt 0.999609 0.375195
vt 0.999609 0.499805
vt 0.843359 0.499805
vt 0.807287 0.375195
vt 0.994787 0.375195
vt 0.994787 0.499805
vt 0.807287 0.421875
vt 0.999609 0.375195
vt 0.750391 0.375195
vt 0.750391 0.499805
vt 0.999609 0.499805
vt 0.999609 0.375195
vt 0.750391 0.375195
vt 0.750391 0.499805
vt 0.999609 0.375195
vt 0.851915 0.375195
vt 0.992540 0.382812
vt 0.992540 0.499805
vt 0.851915 0.375195
vt 0.843359 0.375195
vt 0.999609 0.375195
vt 0.983984 0.499805
vt 0.843359 0.499805
vt 0.843359 0.375195
vt 0.999609 0.375195
vt 0.999609 0.499805
vt 0.843359 0.499805
vn -0.6294 0.7771 0.0032
vn 0.0000 0.0000 1.0000
vn 0.0002 -0.0134 0.9999
vn -0.0009 -0.0123 0.9999
vn 0.0059 -0.0207 0.9998
usemtl beatboxers_forest_tilemap
s off
f 1/1/1 5/2/1 3/3/1 8/4/1
f 5/5/1 6/6/1 7/7/1 3/8/1
f 8/9/1 3/10/1 12/11/1 10/12/1
f 3/13/1 7/14/1 11/15/1 12/16/1
f 9/17/1 4/18/1 2/19/1 13/20/1
f 14/21/1 15/22/1 16/23/1 17/24/1
f 25/25/2 24/26/2 20/27/2 27/28/2
f 24/29/2 28/30/2 30/31/2 20/32/2
f 20/33/2 30/34/2 26/35/2 22/36/2
f 26/37/3 18/38/3 23/39/3 29/40/3
f 30/41/2 19/42/2 18/43/2 26/44/2
f 28/45/2 21/46/2 19/47/2 30/48/2
f 33/49/4 32/50/4 37/51/4 34/52/4
f 32/53/2 36/54/2 43/55/2 37/56/2
f 37/57/2 43/58/2 42/59/2 39/60/2
f 42/61/5 31/62/5 40/63/5 41/64/5
f 43/65/2 35/66/2 31/67/2 42/68/2
f 36/69/2 38/70/2 35/71/2 43/72/2
