# Blender v2.79 (sub 0) OBJ File: 'toolbox.blend'
# www.blender.org
mtllib toolbox.mtl
o Cube
v 0.250000 0.500004 0.500000
v 0.250000 0.500000 -0.000000
v 0.250000 1.000000 -0.000004
v 0.250000 1.000004 0.499996
v 0.500000 0.500004 0.500000
v -0.000000 0.500004 0.500004
v -0.000004 0.500004 0.000004
v 0.499996 0.500004 0.000000
v 0.500000 0.000004 0.500000
v -0.000000 -0.000000 0.500000
v -0.000004 0.500000 0.500000
v 0.499996 0.500004 0.500000
v 0.500000 0.000004 0.000000
v 0.500000 -0.000000 0.500000
v 0.500000 0.500000 0.500004
v 0.500000 0.500004 0.000004
v 0.000000 0.000004 0.000000
v 0.500000 -0.000000 0.000000
v 0.500004 0.500000 0.000000
v 0.000004 0.500004 0.000000
v 0.000000 0.000011 0.500000
v 0.000000 0.000007 -0.000000
v 0.000000 0.500007 -0.000004
v 0.000000 0.500011 0.499996
v 0.250000 1.000004 0.499996
v 0.250000 1.000000 -0.000004
v 0.250000 0.500000 -0.000000
v 0.250000 0.500004 0.500000
vt 0.250391 0.199688
vt 0.250391 0.000312
vt 0.499609 0.000312
vt 0.499609 0.199688
vt 0.500391 0.199688
vt 0.749609 0.199688
vt 0.749609 0.000312
vt 0.500391 0.000312
vt 0.000391 0.199688
vt 0.249609 0.199688
vt 0.249609 0.000313
vt 0.000391 0.000313
vt 0.000391 0.199688
vt 0.249609 0.199688
vt 0.249609 0.000313
vt 0.000391 0.000313
vt 0.000391 0.199688
vt 0.249609 0.199688
vt 0.249609 0.000313
vt 0.000391 0.000313
vt 0.000391 0.199688
vt 0.249609 0.199688
vt 0.249609 0.000312
vt 0.000391 0.000312
vt 0.250391 0.199688
vt 0.499609 0.199688
vt 0.499609 0.000312
vt 0.250391 0.000312
vn 1.0000 -0.0000 0.0000
vn 0.0000 1.0000 0.0000
vn 0.0000 0.0000 1.0000
vn 0.0000 0.0000 -1.0000
vn -1.0000 0.0000 0.0000
usemtl beatboxers_town_tilemap
s off
f 4/1/1 1/2/1 2/3/1 3/4/1
f 8/5/2 7/6/2 6/7/2 5/8/2
f 12/9/3 11/10/3 10/11/3 9/12/3
f 16/13/1 15/14/1 14/15/1 13/16/1
f 20/17/4 19/18/4 18/19/4 17/20/4
f 24/21/5 23/22/5 22/23/5 21/24/5
f 25/25/5 26/26/5 27/27/5 28/28/5
