# Blender v2.79 (sub 0) OBJ File: 'trebleplant.blend'
# www.blender.org
mtllib trebleplant.mtl
o Cube
v 0.000000 0.000000 -0.500000
v 0.000000 0.500000 -0.500000
v 0.000000 0.500000 0.000000
v 0.000000 0.000000 0.000000
v 0.000000 0.000000 -0.500000
v 0.000000 0.500000 -0.500000
v 0.000000 0.500000 -0.500000
v 0.000000 0.500000 0.000000
v 0.000000 0.000000 0.000000
v 0.000000 0.000000 -0.500000
v 0.000000 0.000000 0.000000
v 0.000000 0.500000 0.000000
vt 0.500391 0.857366
vt 0.749609 0.857366
vt 0.749609 0.999777
vt 0.500391 0.999777
vt 0.500391 0.857366
vt 0.500391 0.999777
vt 0.749609 0.999777
vt 0.749609 0.857366
vt 0.500391 0.857366
vt 0.749609 0.857366
vt 0.749609 0.999777
vt 0.500391 0.999777
vn 1.0000 0.0000 0.0000
vn -1.0000 0.0000 0.0000
usemtl beatboxers_town_tilemap_real.001
s off
f 9/1/1 10/2/1 7/3/1 12/4/1
f 4/5/2 3/6/2 2/7/2 1/8/2
f 11/9/1 5/10/1 6/11/1 8/12/1
